<svg id="Layer_2" data-name="Layer 2" xmlns="http://www.w3.org/2000/svg" viewBox="0 0 513.51 462.63">
  <defs>
    <style>
      .cls-1, .cls-12 {
        fill: #ffea2a;
        stroke-miterlimit: 10;
      }

      .cls-1, .cls-12, .cls-6 {
        stroke: #172432;
      }

      .cls-1, .cls-3, .cls-6 {
        stroke-width: 9px;
      }

      .cls-2 {
        fill: #f5eceb;
      }

      .cls-3, .cls-6 {
        fill: none;
      }

      .cls-3, .cls-9 {
        stroke: #000;
      }

      .cls-3, .cls-6, .cls-9 {
        stroke-linecap: round;
        stroke-linejoin: bevel;
      }

      .cls-4 {
        fill: #df4d17;
      }

      .cls-5 {
        fill: #656568;
        opacity: 0.75;
      }

      .cls-7 {
        fill: #c0c0c5;
      }

      .cls-8 {
        fill: #f0beb6;
      }

      .cls-10, .cls-9 {
        fill: #172432;
      }

      .cls-11 {
        fill: #fff;
      }

      .cls-12 {
        stroke-width: 7px;
      }
    </style>
  </defs>
  <path class="cls-1" d="M273.48,376S113.78,157.68,5.33,238.85c-4.74,3.55-2.69,21.78-2.69,21.78s79.14-97.72,262,124" transform="translate(2.3 -35.33)"/>
  <path class="cls-2" d="M280.28,296s-3.47,53.72-6.8,57.15-33.6,46.83,3.79,50c0,0,12.33,21.73,16.62,24.23,1,.61,8.57,20.47,3,23.69-7.9,4.56-22.68,28.21-13,28.74,22.4,1.23,90.72,4.88,104.8-4.93,17.67-12.3-21.47-38.89-19.15-39.94,2-.92,3.74-5.13,5.15-11.71,8.63-40.21,6.19-168.86,1.36-173.92C369.78,242.67,280.28,296,280.28,296Z" transform="translate(2.3 -35.33)"/>
  <path class="cls-3" d="M287.37,397.51" transform="translate(2.3 -35.33)"/>
  <path class="cls-2" d="M390.65,424.1c-1.32,5,15,70,43.09,69.31s88.7,2.69,71.21-30.55c-14.73-28-63.56-2.47-69.39-8.56-3.09-3.22-19.74-35.73-17.65-40.57s12.9-25.31,4.61-50S384.46,255.57,378,252s-35.15,25.32-33.91,30.66,24.9,48,21.07,57.77-12.58,75.12-6.65,80.89,5.37,7.53,12.37,8.5a18.28,18.28,0,0,0,17.24-6.66" transform="translate(2.3 -35.33)"/>
  <path class="cls-4" d="M393.73,284.44c3.49,1.67,30.78,85.8,34.12,96.41s-87,14.26-57.34-38.63C383.59,318.88,385.24,280.39,393.73,284.44Z" transform="translate(2.3 -35.33)"/>
  <path class="cls-4" d="M432.89,452c-5.62-6.72-20.07,21.14-14.73,32.5,10.82,23,9.5,7.74,9.5,7.74s9.67-24.32,17.93-32.47Z" transform="translate(2.3 -35.33)"/>
  <path class="cls-4" d="M451.75,453.25c2.47,4.32-6,27.25,17.77,36.16S489,485.82,489,485.82s-26.37-34.75-18.11-42.91S451.75,453.25,451.75,453.25Z" transform="translate(2.3 -35.33)"/>
  <path class="cls-5" d="M404.61,472.22s31.39,10.6,51,10.19c25.32-.53,49.91-19.65,51-11.13C508.07,482.08,424,520.89,404.61,472.22Z" transform="translate(2.3 -35.33)"/>
  <path class="cls-4" d="M393.3,433.58s9.59-13.73,23.7-11.06.91-8.79.91-8.79-20.83-4-29.29,11.89S393.3,433.58,393.3,433.58Z" transform="translate(2.3 -35.33)"/>
  <path class="cls-4" d="M421.93,443.56c-1.78,1.18-19.6,15.42-19.24,20.66s-6.46-16-6.46-16,18-15.79,23.92-13.34S421.93,443.56,421.93,443.56Z" transform="translate(2.3 -35.33)"/>
  <path class="cls-6" d="M378.67,433.27c9.11-1.61,8.89-13.12,8.89-13.12,13.84,75.36,41.89,73.3,49.77,73.3,46.85,0,70.52-7,69.34-22.17-2.23-28.61-34.67-34.07-58.12-15.71-22.88,17.91-30.77-43.79-30.77-43.79s17.64-18.79,4.74-48c-9-20.33-18.6-76-46.45-114.52" transform="translate(2.3 -35.33)"/>
  <path class="cls-3" d="M358.52,462.86" transform="translate(2.3 -35.33)"/>
  <path class="cls-3" d="M358.52,437.21" transform="translate(2.3 -35.33)"/>
  <path class="cls-7" d="M280.84,469.58c-3.57-10.47,27.65,14.92,66.72-.69,9.77-3.91,25.87-13.9,33.87-19.1s15.49,32.74-1.48,30.08S288.26,491.38,280.84,469.58Z" transform="translate(2.3 -35.33)"/>
  <path class="cls-6" d="M352.8,475.17c-5.67,3.71,18.55,3.31,33.37.49s-4.74-25.87-4.74-25.87-8.94-10.5-5.36-16.52" transform="translate(2.3 -35.33)"/>
  <path class="cls-6" d="M299.61,424.1c-7.46,20.64-2.72,26.91-2.72,26.91s-26.67,9.77-13,28.74c5.49,7.62,60.75,6,68.89-4.29C363.67,461.72,349,451,349,451s-.32-1-7-16.13" transform="translate(2.3 -35.33)"/>
  <path class="cls-2" d="M361.46,255.52c40.47-16,78.22-49.47,81.17-70.71S422.81,113.7,409.56,100c-14.76-15.27-3.72-52.78-18.39-59.28s-39.49,23.93-43,24.21c-49.26,4-62.95,4-115.56,29.89-22,10.83-43.23-7.21-52.74,5.18-5.76,7.49,12.4,45.83,12.4,52.33s-.42,68.48,7.08,74.36c34,26.65,57.88,32.58,75.59,32.55,0,0-10.44,9.92,5.59,36.71,0,0-14.14,35.92-10.12,60.58" transform="translate(2.3 -35.33)"/>
  <path class="cls-4" d="M192.53,97.5c-18.31-6.38.15,85.1.15,85.1,17.6-35.39,66.08-43.17,67.78-60.9,2-21.24-2.52-30.58-67.93-24.2" transform="translate(2.3 -35.33)"/>
  <path class="cls-4" d="M325.36,66.82C304.7,81.42,303.21,94,310,101.16c8.67,9.13,66.25,22.33,78.13,36.14S422.57,183,442.4,184.81s-36.21-87.62-38.18-93.69-40-40.2-44.32-36.28S334.29,60.5,325.36,66.82Z" transform="translate(2.3 -35.33)"/>
  <path class="cls-8" d="M196.14,149.84c-3.78,2.23-32-66.79,3.33-47.95s20,9.51,22.22,10.84S223.61,133.7,196.14,149.84Z" transform="translate(2.3 -35.33)"/>
  <path class="cls-8" d="M398.89,89.33c-.59,4.88-61.43-1.33-56-5.55s41.23-48.26,44.5-43.91S403.56,50.67,398.89,89.33Z" transform="translate(2.3 -35.33)"/>
  <path class="cls-7" d="M195.31,215.11c-6.45-21,7.21,27.56,99.11,40.89C306.37,257.73,209.33,260.63,195.31,215.11Z" transform="translate(2.3 -35.33)"/>
  <path class="cls-7" d="M259.92,390.33c-4.63-10.32,20.52,10.31,39.64-3s40.67-52.2,47.46-45.18C350.55,345.78,285.1,446.56,259.92,390.33Z" transform="translate(2.3 -35.33)"/>
  <path class="cls-6" d="M361.23,255.52c40.46-16,78.21-49.47,81.17-70.71S422.57,113.7,409.33,100c-14.77-15.27-3.73-52.78-18.4-59.28s-39.49,23.93-43,24.21c-41,3.31-57.34,3.86-92,18.86-7,3-14.75,6.67-23.6,11-22,10.83-43.24-7.21-52.75,5.18-5.76,7.49,12.4,45.83,12.4,52.33S181.89,213,199.1,226.71c33.76,26.93,57.87,32.58,75.59,32.55,0,0-10.44,9.92,5.59,36.71,0,0-14.15,35.92-10.12,60.58" transform="translate(2.3 -35.33)"/>
  <path class="cls-9" d="M264.06,193.65c4.83-12.73-22.05-42.77-38.91-12.8-7.2,12.8,6.4,11.19,18.21,12.8C257,195.5,261.4,200.69,264.06,193.65Z" transform="translate(2.3 -35.33)"/>
  <path class="cls-9" d="M314.68,182.47c-3.73-6.47,21.39-52.67,46-44.12,15.37,5.34,18.9,18,13.93,28.71-3,6.47-15.69,6.91-24.08,10.06C328.19,185.51,321.88,195,314.68,182.47Z" transform="translate(2.3 -35.33)"/>
  <path class="cls-6" d="M223.14,153c8.65-2.83,17.75-4.17,20.75-3.4,7.2,1.85,9.36,8,16.57,8.7" transform="translate(2.3 -35.33)"/>
  <path class="cls-6" d="M347,109.26c-8.11-.1-16-1.54-22.52,6.39s-9.23,19.65-13.69,23.78" transform="translate(2.3 -35.33)"/>
  <path class="cls-6" d="M328.89,432.28c7.11,2.09,17.38,4.62,30.42,0" transform="translate(2.3 -35.33)"/>
  <path class="cls-6" d="M427.85,466.51s5.48,0,20.7-10.94" transform="translate(2.3 -35.33)"/>
  <path d="M362.06,159.92c7.72,0,7.74-12,0-12s-7.73,12,0,12Z" transform="translate(2.3 -35.33)"/>
  <path class="cls-10" d="M284.49,196.8c5.68-2.25,12.07-3.61,18.12-2.05a4.15,4.15,0,0,1,3,5.06,21,21,0,0,1-6.86,11.32,8.29,8.29,0,0,1-8.64,1.15c-4.3-1.65-8.85-4.49-10.26-9.15C279.06,200.05,282.07,197.94,284.49,196.8Z" transform="translate(2.3 -35.33)"/>
  <path class="cls-6" d="M349,300.18c9.46,28.52-25.25,90.29-47.35,99.12-7.69,3.07-38.27,12-41.68-9-.63-3.85-4.46-23.22,17.8-40.89,43.95-34.86,36.83-32.75,40.69-44.55,0,0,2.48-23.38,8-23.59" transform="translate(2.3 -35.33)"/>
  <path class="cls-11" d="M359.9,159.2c7.72,0,7.73-12,0-12s-7.73,12,0,12Z" transform="translate(2.3 -35.33)"/>
  <path class="cls-11" d="M328.91,177.82c3.87,0,3.87-6,0-6s-3.86,6,0,6Z" transform="translate(2.3 -35.33)"/>
  <path class="cls-11" d="M251.09,182.86c3.86,0,3.87-6,0-6s-3.87,6,0,6Z" transform="translate(2.3 -35.33)"/>
  <path class="cls-11" d="M232.36,187.13a1.5,1.5,0,0,0,0-3,1.5,1.5,0,0,0,0,3Z" transform="translate(2.3 -35.33)"/>
  <path class="cls-6" d="M257.94,232.11C296.49,235,292.77,213,295.05,213c3.24,0,31.79,30.49,67,2.18" transform="translate(2.3 -35.33)"/>
  <path class="cls-6" d="M373.68,44.28C367.83,56.65,362,80,339.72,81.42" transform="translate(2.3 -35.33)"/>
  <path class="cls-6" d="M185.55,96c16.33.93,24.77,19.07,37.59,13.09" transform="translate(2.3 -35.33)"/>
  <path class="cls-6" d="M259.92,390.33" transform="translate(2.3 -35.33)"/>
  <path class="cls-6" d="M277.27,371.36" transform="translate(2.3 -35.33)"/>
  <path class="cls-6" d="M279.75,407.34c4.31,19.26,7.62,16,18.44,22.49" transform="translate(2.3 -35.33)"/>
  <path class="cls-6" d="M292.77,260.57c-16.15-.72,0,1.3-19.29-1.37" transform="translate(2.3 -35.33)"/>
  <path class="cls-6" d="M299.56,464.22c-1.75,2-7.57-1.11-4,16" transform="translate(2.3 -35.33)"/>
  <path class="cls-7" d="M306.83,263.71c1.46-1.5,8.75.57,17-.06,7.52-.58,16.07-4,17.14-2.75,2.27,2.6-6.75,13.56-18,13.56C312.3,274.46,303.39,267.24,306.83,263.71Z" transform="translate(2.3 -35.33)"/>
  <g>
    <path class="cls-12" d="M30,210.73c-6.13,4.73-13.61,7.43-21.06,9.29,1.74-7.4,3.48-15.13,8.19-21.3,2.11-3.1,5.71-5.61,9.6-5.08A8.85,8.85,0,0,1,34.33,199,11.23,11.23,0,0,1,30,210.73Z" transform="translate(2.3 -35.33)"/>
    <path class="cls-12" d="M8.91,273.47c9.35-2.07,19-4.07,28.58-2.85,8.18.75,11.79,12.31,6.95,18.37-3.6,4-10,4.16-14.57,1.91C21.5,287.05,15,280.22,8.91,273.47Z" transform="translate(2.3 -35.33)"/>
  </g>
</svg>
