<?xml version="1.0" encoding="UTF-8" standalone="no"?>
<!-- Created with Inkscape (http://www.inkscape.org/) -->

<svg
   xmlns:dc="http://purl.org/dc/elements/1.1/"
   xmlns:cc="http://creativecommons.org/ns#"
   xmlns:rdf="http://www.w3.org/1999/02/22-rdf-syntax-ns#"
   xmlns:svg="http://www.w3.org/2000/svg"
   xmlns="http://www.w3.org/2000/svg"
   xmlns:xlink="http://www.w3.org/1999/xlink"
   xmlns:sodipodi="http://sodipodi.sourceforge.net/DTD/sodipodi-0.dtd"
   xmlns:inkscape="http://www.inkscape.org/namespaces/inkscape"
   width="70.427887mm"
   height="65.807152mm"
   viewBox="0 0 70.427888 65.807152"
   version="1.1"
   id="svg9256"
   sodipodi:docname="marseycanned.svg"
   inkscape:version="0.92.2 (5c3e80d, 2017-08-06)">
  <defs
     id="defs9250">
    <linearGradient
       y2="171.48709"
       x2="125.82066"
       y1="171.6064"
       x1="123.55092"
       gradientTransform="matrix(-0.99650406,0.08354437,0.08354437,0.99650406,205.76563,-4.007363)"
       gradientUnits="userSpaceOnUse"
       id="linearGradient6985"
       xlink:href="#linearGradient5766"
       inkscape:collect="always" />
    <linearGradient
       id="linearGradient5766"
       inkscape:collect="always">
      <stop
         id="stop5770"
         offset="0"
         style="stop-color:#a4b0b0;stop-opacity:1;" />
      <stop
         id="stop5772"
         offset="1"
         style="stop-color:#0a0913;stop-opacity:0" />
    </linearGradient>
    <linearGradient
       y2="171.48709"
       x2="125.82066"
       y1="171.6064"
       x1="123.55092"
       gradientTransform="matrix(-0.99650406,0.08354437,0.08354437,0.99650406,202.27521,-5.8802062)"
       gradientUnits="userSpaceOnUse"
       id="linearGradient6987"
       xlink:href="#linearGradient5766"
       inkscape:collect="always" />
    <linearGradient
       y2="171.48709"
       x2="125.82066"
       y1="171.6064"
       x1="123.55092"
       gradientTransform="matrix(-0.99650406,0.08354437,0.08354437,0.99650406,199.04186,-7.5707733)"
       gradientUnits="userSpaceOnUse"
       id="linearGradient6989"
       xlink:href="#linearGradient5766"
       inkscape:collect="always" />
    <linearGradient
       y2="171.48709"
       x2="125.82066"
       y1="171.6064"
       x1="123.55092"
       gradientTransform="matrix(-0.99650406,0.08354437,0.08354437,0.99650406,195.55145,-9.4436267)"
       gradientUnits="userSpaceOnUse"
       id="linearGradient6991"
       xlink:href="#linearGradient5766"
       inkscape:collect="always" />
    <linearGradient
       gradientTransform="rotate(1.1828284,131.11837,167.53467)"
       inkscape:collect="always"
       xlink:href="#linearGradient5766"
       id="linearGradient5768"
       x1="123.55092"
       y1="171.6064"
       x2="125.82066"
       y2="171.48709"
       gradientUnits="userSpaceOnUse" />
    <linearGradient
       gradientTransform="rotate(1.1828284,233.98189,329.512)"
       inkscape:collect="always"
       xlink:href="#linearGradient5766"
       id="linearGradient5768-9"
       x1="123.55092"
       y1="171.6064"
       x2="125.82066"
       y2="171.48709"
       gradientUnits="userSpaceOnUse" />
    <linearGradient
       gradientTransform="rotate(1.1828284,321.65794,491.10369)"
       inkscape:collect="always"
       xlink:href="#linearGradient5766"
       id="linearGradient5768-8"
       x1="123.55092"
       y1="171.6064"
       x2="125.82066"
       y2="171.48709"
       gradientUnits="userSpaceOnUse" />
    <linearGradient
       gradientTransform="rotate(1.1828284,424.52126,653.08082)"
       inkscape:collect="always"
       xlink:href="#linearGradient5766"
       id="linearGradient5768-9-4"
       x1="123.55092"
       y1="171.6064"
       x2="125.82066"
       y2="171.48709"
       gradientUnits="userSpaceOnUse" />
    <linearGradient
       gradientTransform="rotate(1.1828284,517.66659,803.28619)"
       inkscape:collect="always"
       xlink:href="#linearGradient5766"
       id="linearGradient5768-4"
       x1="123.55092"
       y1="171.6064"
       x2="125.82066"
       y2="171.48709"
       gradientUnits="userSpaceOnUse" />
    <linearGradient
       gradientTransform="rotate(1.1828284,620.53038,965.26331)"
       inkscape:collect="always"
       xlink:href="#linearGradient5766"
       id="linearGradient5768-9-2"
       x1="123.55092"
       y1="171.6064"
       x2="125.82066"
       y2="171.48709"
       gradientUnits="userSpaceOnUse" />
    <linearGradient
       gradientTransform="rotate(1.1828284,34.183076,8.6203461)"
       inkscape:collect="always"
       xlink:href="#linearGradient5766"
       id="linearGradient5768-9-2-7"
       x1="123.55092"
       y1="171.6064"
       x2="125.82066"
       y2="171.48709"
       gradientUnits="userSpaceOnUse" />
  </defs>
  <sodipodi:namedview
     id="base"
     pagecolor="#ffffff"
     bordercolor="#666666"
     borderopacity="1.0"
     inkscape:pageopacity="0.0"
     inkscape:pageshadow="2"
     inkscape:zoom="0.49497475"
     inkscape:cx="282.99425"
     inkscape:cy="312.13644"
     inkscape:document-units="mm"
     inkscape:current-layer="layer1"
     showgrid="false"
     inkscape:window-width="1920"
     inkscape:window-height="1058"
     inkscape:window-x="1912"
     inkscape:window-y="-8"
     inkscape:window-maximized="1" />
  <metadata
     id="metadata9253">
    <rdf:RDF>
      <cc:Work
         rdf:about="">
        <dc:format>image/svg+xml</dc:format>
        <dc:type
           rdf:resource="http://purl.org/dc/dcmitype/StillImage" />
        <dc:title></dc:title>
      </cc:Work>
    </rdf:RDF>
  </metadata>
  <g
     inkscape:label="Layer 1"
     inkscape:groupmode="layer"
     id="layer1"
     transform="translate(-8.4717111,-158.46736)">
    <g
       style="display:inline"
       id="g10883"
       transform="translate(-71.962995,38.705732)">
      <path
         inkscape:export-ydpi="360.50186"
         inkscape:export-xdpi="360.50186"
         style="fill:#a4b0b0;fill-opacity:1;fill-rule:nonzero;stroke:#000000;stroke-width:1;stroke-linejoin:round;stroke-miterlimit:4;stroke-dasharray:none;stroke-opacity:1"
         d="m 134.89497,142.55804 14.45112,3.41082 c 0.18038,8.28475 1.15501,13.77348 -5.03729,17.73432 l -27.96492,17.88748 c -6.1923,3.96083 -14.91503,4.60911 -19.557737,1.45353 L 84.5752,174.74457 c -4.78484,-2.86832 -4.857107,-17.94896 -0.192472,-19.62314 l 30.954512,-11.10986 c 6.91857,-2.48314 14.91504,-4.60911 19.55773,-1.45353 v 0"
         id="rect4739-8-3"
         inkscape:connector-curvature="0"
         sodipodi:nodetypes="ccscccsscc" />
      <path
         inkscape:export-ydpi="360.50186"
         inkscape:export-xdpi="360.50186"
         sodipodi:nodetypes="ccccc"
         style="fill:url(#linearGradient6985);fill-opacity:1;stroke:none;stroke-width:0.26458332px;stroke-linecap:butt;stroke-linejoin:miter;stroke-opacity:1"
         d="m 96.989231,173.43275 0.702945,9.98037 -2.786291,-2.03002 -0.59323,-9.338 z"
         id="path5760-2-1"
         inkscape:connector-curvature="0" />
      <path
         inkscape:export-ydpi="360.50186"
         inkscape:export-xdpi="360.50186"
         style="fill:url(#linearGradient6987);fill-opacity:1;stroke:none;stroke-width:0.26458332px;stroke-linecap:butt;stroke-linejoin:miter;stroke-opacity:1"
         d="m 93.498814,171.55991 0.836579,9.41241 -2.919924,-1.46206 -0.593232,-9.338 z"
         id="path5760-1-9-0"
         inkscape:connector-curvature="0" />
      <path
         inkscape:export-ydpi="360.50186"
         inkscape:export-xdpi="360.50186"
         style="fill:url(#linearGradient6989);fill-opacity:1;stroke:none;stroke-width:0.26458332px;stroke-linecap:butt;stroke-linejoin:miter;stroke-opacity:1"
         d="m 90.265472,169.86932 0.836581,9.41244 -2.919926,-1.46208 -0.593231,-9.33798 z"
         id="path5760-6-4"
         inkscape:connector-curvature="0" />
      <path
         inkscape:export-ydpi="360.50186"
         inkscape:export-xdpi="360.50186"
         sodipodi:nodetypes="ccccc"
         style="fill:url(#linearGradient6991);fill-opacity:1;stroke:none;stroke-width:0.26458332px;stroke-linecap:butt;stroke-linejoin:miter;stroke-opacity:1"
         d="m 86.775054,167.99648 0.268633,8.71086 -2.418795,-1.69594 -0.349238,-8.79234 z"
         id="path5760-1-3-7"
         inkscape:connector-curvature="0" />
      <path
         inkscape:export-ydpi="360.50186"
         inkscape:export-xdpi="360.50186"
         style="fill:url(#linearGradient5768);fill-opacity:1;stroke:none;stroke-width:0.26458332px;stroke-linecap:butt;stroke-linejoin:miter;stroke-opacity:1"
         d="m 123.21785,167.56905 -0.24236,9.44642 2.82209,-1.643 0.004,-9.35681 z"
         id="path5760"
         inkscape:connector-curvature="0" />
      <path
         inkscape:export-ydpi="360.50186"
         inkscape:export-xdpi="360.50186"
         style="fill:url(#linearGradient5768-9);fill-opacity:1;stroke:none;stroke-width:0.26458332px;stroke-linecap:butt;stroke-linejoin:miter;stroke-opacity:1"
         d="m 126.58343,165.48018 -0.24235,9.44642 2.82209,-1.643 0.004,-9.35681 z"
         id="path5760-1"
         inkscape:connector-curvature="0" />
      <path
         inkscape:export-ydpi="360.50186"
         inkscape:export-xdpi="360.50186"
         style="fill:url(#linearGradient5768-8);fill-opacity:1;stroke:none;stroke-width:0.26458332px;stroke-linecap:butt;stroke-linejoin:miter;stroke-opacity:1"
         d="m 129.93781,163.70473 -0.24235,9.44642 2.82208,-1.64299 0.004,-9.35682 z"
         id="path5760-2"
         inkscape:connector-curvature="0" />
      <path
         inkscape:export-ydpi="360.50186"
         inkscape:export-xdpi="360.50186"
         style="fill:url(#linearGradient5768-9-4);fill-opacity:1;stroke:none;stroke-width:0.26458332px;stroke-linecap:butt;stroke-linejoin:miter;stroke-opacity:1"
         d="m 133.3034,161.61586 -0.24236,9.44642 2.82209,-1.64299 0.004,-9.35682 z"
         id="path5760-1-9"
         inkscape:connector-curvature="0" />
      <path
         inkscape:export-ydpi="360.50186"
         inkscape:export-xdpi="360.50186"
         style="fill:url(#linearGradient5768-4);fill-opacity:1;stroke:none;stroke-width:0.26458332px;stroke-linecap:butt;stroke-linejoin:miter;stroke-opacity:1"
         d="m 136.42389,159.72509 -0.24235,9.44642 2.82209,-1.643 0.004,-9.35682 z"
         id="path5760-6"
         inkscape:connector-curvature="0" />
      <path
         inkscape:export-ydpi="360.50186"
         inkscape:export-xdpi="360.50186"
         style="fill:url(#linearGradient5768-9-2);fill-opacity:1;stroke:none;stroke-width:0.26458332px;stroke-linecap:butt;stroke-linejoin:miter;stroke-opacity:1"
         d="m 139.78948,157.63622 -0.24235,9.44642 2.82208,-1.643 0.004,-9.35682 z"
         id="path5760-1-3"
         inkscape:connector-curvature="0" />
      <path
         inkscape:export-ydpi="360.50186"
         inkscape:export-xdpi="360.50186"
         style="fill:url(#linearGradient5768-9-2-7);fill-opacity:1;stroke:none;stroke-width:0.26458332px;stroke-linecap:butt;stroke-linejoin:miter;stroke-opacity:1"
         d="m 119.91677,169.53621 -0.24236,9.44642 2.82209,-1.64299 0.004,-9.35682 z"
         id="path5760-1-3-4"
         inkscape:connector-curvature="0" />
      <path
         inkscape:export-ydpi="360.50186"
         inkscape:export-xdpi="360.50186"
         style="fill:none;fill-opacity:1;fill-rule:nonzero;stroke:#000000;stroke-width:1;stroke-linejoin:round;stroke-miterlimit:4;stroke-dasharray:none;stroke-opacity:1"
         d="m 134.89497,142.55804 14.45112,3.41082 c 0.18038,8.28475 1.15501,13.77348 -5.03729,17.73432 l -27.96492,17.88748 c -6.1923,3.96083 -14.91503,4.60911 -19.557736,1.45353 l -12.210943,-8.29962 c -4.784841,-2.86832 -4.857108,-17.94896 -0.192472,-19.62314 l 30.954511,-11.10986 c 6.91857,-2.48314 14.91504,-4.60911 19.55773,-1.45353 v 0"
         id="rect4739-8-3-8"
         inkscape:connector-curvature="0"
         sodipodi:nodetypes="ccscccsscc" />
      <path
         inkscape:export-ydpi="360.50186"
         inkscape:export-xdpi="360.50186"
         style="fill:none;stroke:#000000;stroke-width:1.06500006;stroke-linecap:round;stroke-linejoin:round;stroke-miterlimit:4;stroke-dasharray:none;stroke-opacity:1"
         d="m 104.45228,140.88118 -2.45554,-2.27179 2.17156,-4.44335 -7.516956,5.27857 3.975636,-0.56795"
         id="path5758"
         inkscape:connector-curvature="0"
         sodipodi:nodetypes="ccccc" />
      <path
         inkscape:export-ydpi="360.50186"
         inkscape:export-xdpi="360.50186"
         style="fill:#a4b0b0;fill-opacity:1;fill-rule:nonzero;stroke:none;stroke-width:1.96500003;stroke-miterlimit:4;stroke-dasharray:none;stroke-opacity:1"
         d="m 134.78212,133.63409 c 0,0 12.21093,8.29962 12.21093,8.29962 4.64271,3.15558 3.3952,8.88468 -2.7971,12.84552 0,0 -27.96492,17.88748 -27.96492,17.88748 -6.1923,3.96083 -14.91503,4.60911 -19.557746,1.45353 0,0 -12.21094,-8.29962 -12.21094,-8.29962 -4.642692,-3.15558 -3.395179,-8.88468 2.797114,-12.84552 0,0 27.964942,-17.88748 27.964942,-17.88748 6.19229,-3.96083 14.91503,-4.60911 19.55772,-1.45353 0,0 0,0 0,0"
         id="rect4739-8-5"
         inkscape:connector-curvature="0" />
      <path
         inkscape:connector-curvature="0"
         id="path6548"
         style="font-style:normal;font-variant:normal;font-weight:normal;font-stretch:normal;font-size:medium;line-height:0;font-family:'Script MT Bold';-inkscape-font-specification:'Script MT Bold, ';letter-spacing:0px;word-spacing:0px;fill:#28260e;fill-opacity:1;stroke:none;stroke-width:0.26458332"
         d="m 103.15486,150.79334 c -0.12209,0.0781 -0.57404,0.16743 -1.35582,0.26801 0,0 -0.0634,-0.0431 -0.0634,-0.0431 -0.0219,-0.0479 0.0411,-0.12693 0.18904,-0.23705 0.29665,-0.22381 0.4763,-0.44866 0.53895,-0.67454 0.0658,-0.22789 1.1e-4,-0.40884 -0.19706,-0.54285 -0.18543,-0.12604 -0.43583,-0.17645 -0.7512,-0.15125 -0.31225,0.0232 -0.59359,0.11492 -0.84405,0.27511 -0.18158,0.11615 -0.335,0.27003 -0.46025,0.46163 -0.12212,0.18959 -0.23138,0.54903 -0.32776,1.07829 -0.094,0.53086 -0.22521,0.9167 -0.39352,1.15751 -0.16518,0.23882 -0.3683,0.43532 -0.60936,0.58951 -0.55726,0.35645 -1.23068,0.5472 -2.02028,0.57226 -0.78411,0.0247 -1.419107,-0.12815 -1.904984,-0.4584 -0.401377,-0.27281 -0.608676,-0.57686 -0.621898,-0.91214 -0.01008,-0.33729 0.06314,-0.556 0.219673,-0.65612 0.08766,-0.0561 0.36274,-0.13757 0.82525,-0.24451 0.462509,-0.10694 0.704329,-0.15323 0.725449,-0.13887 0.0751,0.0511 0.0982,0.10598 0.0692,0.16477 -0.0235,0.0584 -0.10762,0.14162 -0.25242,0.24973 -0.453188,0.33632 -0.701717,0.61142 -0.74559,0.82529 -0.04153,0.21546 0.05155,0.40057 0.279231,0.55532 0.248809,0.16912 0.580199,0.2436 0.994169,0.22345 0.4171,-0.0222 0.77749,-0.13035 1.08117,-0.32459 0.15653,-0.10013 0.28607,-0.23099 0.38863,-0.39259 0.10802,-0.162 0.20553,-0.49224 0.29252,-0.99071 0.0925,-0.49889 0.2342,-0.87755 0.4252,-1.13598 0.19101,-0.25843 0.42583,-0.47676 0.70446,-0.65499 0.48525,-0.31039 1.06869,-0.50241 1.7503,-0.57608 0.68161,-0.0737 1.2501,0.0443 1.70546,0.35376 0.34505,0.23453 0.52497,0.49725 0.53976,0.78817 0.0203,0.29051 -0.04,0.48083 -0.1809,0.57094 0,0 10e-6,-1e-5 10e-6,-1e-5" />
      <path
         inkscape:connector-curvature="0"
         id="path6550"
         style="font-style:normal;font-variant:normal;font-weight:normal;font-stretch:normal;font-size:medium;line-height:0;font-family:'Script MT Bold';-inkscape-font-specification:'Script MT Bold, ';letter-spacing:0px;word-spacing:0px;fill:#28260e;fill-opacity:1;stroke:none;stroke-width:0.26458332"
         d="m 103.41069,157.31149 c -0.66908,0.0657 -1.20396,0.0842 -1.60461,0.0555 -0.40066,-0.0286 -0.7113,-0.11792 -0.93194,-0.26789 -0.23003,-0.15635 -0.31528,-0.34646 -0.25576,-0.57034 0.0619,-0.22229 0.25561,-0.43756 0.5812,-0.64582 0.1941,-0.12416 0.49464,-0.27304 0.90161,-0.44664 0.40931,-0.17201 0.70475,-0.31608 0.88633,-0.43223 0.29115,-0.18623 0.36984,-0.33101 0.23605,-0.43434 -0.0774,-0.065 -0.0661,-0.12959 0.0341,-0.19367 0.18471,-0.11815 0.32753,-0.14292 0.42847,-0.0743 0,0 0.21708,0.17237 0.21708,0.17237 0.22064,0.14997 0.53952,0.17671 0.95665,0.0802 0.41946,-0.0949 0.83269,-0.27249 1.23967,-0.53282 0.9486,-0.60676 1.01917,-1.18454 0.21173,-1.73336 -0.51405,-0.34939 -1.15686,-0.54054 -1.92844,-0.57346 -0.76845,-0.0349 -1.38121,0.0938 -1.83829,0.38617 -0.25985,0.16621 -0.35928,0.35678 -0.29829,0.5717 0.0289,0.10227 -0.002,0.18245 -0.0928,0.24052 -0.0814,0.0521 -0.26451,0.0515 -0.54934,-0.002 -0.2817,-0.0552 -0.45542,-0.10509 -0.52114,-0.14976 -0.10328,-0.0702 -0.10794,-0.19108 -0.014,-0.36266 0.0994,-0.17198 0.26497,-0.33207 0.49665,-0.48025 0.695,-0.44456 1.55389,-0.64555 2.57667,-0.60299 1.02277,0.0426 1.91441,0.3223 2.67491,0.83921 0.63845,0.43394 0.95175,0.88852 0.93989,1.36371 -0.01,0.47679 -0.27568,0.8824 -0.7985,1.21682 -0.32872,0.21026 -0.74663,0.34751 -1.25374,0.41175 -0.50475,0.0658 -1.12959,-0.0408 -1.8745,-0.31997 0.0492,0.24412 0.0269,0.45816 -0.0671,0.64213 -0.0885,0.18356 -0.27359,0.36545 -0.55535,0.54567 -0.15653,0.10013 -0.34476,0.2035 -0.56468,0.31011 -0.21757,0.10819 -0.35297,0.17931 -0.40619,0.21336 -0.26924,0.17221 -0.32406,0.31256 -0.16445,0.42105 0.2136,0.14518 0.83964,0.14732 1.87811,0.006 0,0 -0.54002,0.34541 -0.54002,0.34541 m 2.68437,-4.10463 c -0.40223,0.003 -0.75517,0.0588 -1.05882,0.1663 -0.30366,0.10752 -0.80767,0.3432 -1.51205,0.70704 -0.70125,0.36183 -1.28353,0.63519 -1.74684,0.82005 -0.45784,0.18447 -0.95752,0.31364 -1.49906,0.38751 -0.54154,0.0739 -1.05294,0.0712 -1.53418,-0.008 -0.47889,-0.0777 -0.87443,-0.22261 -1.18661,-0.4348 -0.338,-0.22973 -0.4835,-0.47112 -0.43649,-0.72416 0.0525,-0.25344 0.22119,-0.47128 0.50608,-0.65351 0.0908,-0.0581 0.19801,-0.0926 0.32165,-0.10355 0.126,-0.009 0.33376,0.002 0.62329,0.0333 0.28954,0.0316 0.46482,0.0681 0.52585,0.10959 0.0774,0.0526 0.0567,0.11702 -0.0623,0.19311 -0.0282,0.018 -0.14753,0.0773 -0.35806,0.17793 -0.20818,0.1022 -0.3295,0.16431 -0.36394,0.18634 -0.17532,0.11214 -0.28334,0.23078 -0.32406,0.35592 -0.0376,0.12314 10e-4,0.2238 0.11614,0.30198 0.24411,0.16592 0.66668,0.18053 1.26771,0.0438 0.60102,-0.1367 1.34138,-0.43685 2.22108,-0.90044 0.88517,-0.464 1.57154,-0.76986 2.0591,-0.9176 0.49069,-0.14974 0.96571,-0.21512 1.42506,-0.19617 0.46482,0.0185 0.7923,0.0924 0.98242,0.22166 0.054,0.0367 0.0653,0.11461 0.034,0.23375 0,0 0,0 0,0" />
      <path
         inkscape:connector-curvature="0"
         id="path6552"
         style="font-style:normal;font-variant:normal;font-weight:normal;font-stretch:normal;font-size:medium;line-height:0;font-family:'Script MT Bold';-inkscape-font-specification:'Script MT Bold, ';letter-spacing:0px;word-spacing:0px;fill:#28260e;fill-opacity:1;stroke:none;stroke-width:0.26458332"
         d="m 104.17988,158.08831 c 0,0 0.19707,0.46852 0.19707,0.46852 0.061,0.15298 0.12163,0.27059 0.18186,0.35284 0.0657,0.0818 0.14083,0.15147 0.22533,0.2089 0.38964,0.26484 1.0415,0.25975 1.95558,-0.0153 0.91956,-0.27541 1.76911,-0.66243 2.54864,-1.16105 0.82337,-0.52666 1.33528,-1.05229 1.53574,-1.5769 0.20594,-0.52502 0.0671,-0.95185 -0.41638,-1.2805 -0.3873,-0.26324 -0.93739,-0.39137 -1.65029,-0.3844 -0.70742,0.007 -1.26776,0.142 -1.681,0.40633 -0.30994,0.19825 -0.42267,0.40042 -0.33821,0.60653 0.0312,0.0915 0.003,0.16526 -0.0846,0.22131 -0.0908,0.0581 -0.28212,0.0581 -0.57399,1.9e-4 -0.28953,-0.0564 -0.45425,-0.0981 -0.49415,-0.12522 -0.11971,-0.0814 -0.13298,-0.21223 -0.0398,-0.3926 0.0963,-0.18237 0.25715,-0.34564 0.48256,-0.48982 0.59796,-0.38248 1.39816,-0.58619 2.4006,-0.61114 1.00792,-0.0254 1.88744,0.21723 2.63856,0.72775 0.71825,0.48819 1.02643,1.04668 0.92455,1.67546 -0.0988,0.62678 -0.59113,1.22353 -1.47711,1.79023 -0.67623,0.43254 -1.45063,0.75292 -2.32322,0.96112 -0.87024,0.20981 -1.70797,0.2765 -2.51319,0.20006 -0.80287,-0.0748 -1.45429,-0.28216 -1.95425,-0.62198 -0.42015,-0.28557 -0.69004,-0.6301 -0.80967,-1.03358 -0.5376,-0.0432 -0.91437,-0.13823 -1.13032,-0.28501 -0.12205,-0.083 -0.17837,-0.18319 -0.16895,-0.3007 0.0118,-0.11591 0.085,-0.21692 0.21958,-0.30303 0.21915,-0.14018 0.48953,-0.20009 0.81115,-0.17975 0.32162,0.0203 0.61153,0.11826 0.86973,0.29375 0.18308,0.12444 0.31881,0.26833 0.4072,0.43167 0.31067,-0.004 0.60727,-0.0602 0.88979,-0.16967 0.28253,-0.10949 0.74037,-0.33112 1.37353,-0.66489 0.63317,-0.33377 1.17318,-0.5677 1.62005,-0.70179 0.44686,-0.13409 0.89293,-0.19644 1.33819,-0.18706 0.45074,0.009 0.80717,0.0798 1.06929,0.21255 0,0 -0.11157,0.25253 -0.11157,0.25253 -0.34276,0.0272 -0.65227,0.0812 -0.92853,0.16193 -0.27391,0.0823 -0.77676,0.31878 -1.50853,0.70943 -0.7263,0.39025 -1.34066,0.63767 -1.84307,0.74226 -0.49695,0.10419 -1.04434,0.12451 -1.64218,0.061 0,0 -10e-6,0 -10e-6,0" />
      <path
         inkscape:connector-curvature="0"
         id="path6554"
         style="font-style:normal;font-variant:normal;font-weight:normal;font-stretch:normal;font-size:medium;line-height:0;font-family:'Script MT Bold';-inkscape-font-specification:'Script MT Bold, ';letter-spacing:0px;word-spacing:0px;fill:#28260e;fill-opacity:1;stroke:none;stroke-width:0.26458332"
         d="m 113.88381,158.12285 c -0.75136,0.48059 -1.33477,0.5797 -1.75023,0.29732 -0.20186,-0.1372 -0.29298,-0.30653 -0.27338,-0.50797 0.41165,-0.0837 0.82721,-0.21015 1.2467,-0.37937 0.032,0.22416 0.10437,0.37453 0.21704,0.4511 0.12675,0.0862 0.31337,0.13246 0.55987,0.13892 0,0 0,0 0,0 m -4.71012,3.10568 c -1.3194,0.1193 -2.11524,0.0864 -2.38751,-0.0987 -0.15023,-0.10211 -0.17523,-0.25334 -0.075,-0.4537 0.10334,-0.20236 0.30998,-0.40267 0.61992,-0.60092 0.66684,-0.42653 1.75939,-0.9024 3.27765,-1.42761 0,0 1.14318,0.44865 1.14318,0.44865 0,0 0.0422,0.0287 0.0422,0.0287 0,0 -1.82194,0.70087 -1.82194,0.70087 -0.75287,0.28957 -1.25924,0.51746 -1.51909,0.68367 -0.10331,0.0661 -0.1714,0.13132 -0.20428,0.19571 -0.0274,0.064 -0.0153,0.11351 0.0363,0.14861 0.0915,0.0622 0.22691,0.0964 0.40611,0.10256 0.18468,0.006 0.52548,-0.0187 1.02241,-0.0733 0,0 -0.54004,0.34543 -0.54004,0.34543" />
      <path
         inkscape:connector-curvature="0"
         id="path6556"
         style="font-style:normal;font-variant:normal;font-weight:normal;font-stretch:normal;font-size:medium;line-height:0;font-family:'Script MT Bold';-inkscape-font-specification:'Script MT Bold, ';letter-spacing:0px;word-spacing:0px;fill:#28260e;fill-opacity:1;stroke:none;stroke-width:0.26458332"
         d="m 112.63117,163.57853 c -1.3061,0.12008 -2.15279,0.0485 -2.54008,-0.21474 -0.15727,-0.1069 -0.21045,-0.2401 -0.15955,-0.39963 0.0509,-0.15953 0.20002,-0.31839 0.44735,-0.47659 0.33498,-0.21427 0.95012,-0.47148 1.84543,-0.77164 0.47974,-0.16131 0.7697,-0.27401 0.86987,-0.33808 0.10019,-0.0641 0.12094,-0.11607 0.0623,-0.15595 -0.0329,-0.0223 -0.0982,-0.0378 -0.19606,-0.0465 -0.0932,-0.005 -0.21171,-0.005 -0.35567,-1.2e-4 -0.13068,0.006 -0.28407,0.0176 -0.46015,0.0342 -0.15103,0.013 -0.31928,0.0308 -0.50474,0.0534 0,0 -0.50241,0.0612 -0.50241,0.0612 -0.22774,0.0311 -0.43043,0.0895 -0.60809,0.17528 -0.30132,0.14628 -0.56898,0.28652 -0.80299,0.42072 -0.17296,0.10135 -0.40033,0.24213 -0.68209,0.42236 0,0 -1.0223,-0.37267 -1.0223,-0.37267 0.39682,-0.28789 0.69855,-0.49791 0.90518,-0.63008 0.50403,-0.32241 1.02488,-0.59827 1.56255,-0.8276 0.54001,-0.22774 1.18918,-0.45562 1.94752,-0.68365 0,0 1.0798,0.44273 1.0798,0.44273 -0.82878,0.29167 -1.45762,0.53751 -1.8865,0.73752 0.95786,-0.10481 1.65903,-0.15073 2.10351,-0.13775 0.44996,0.0126 0.76296,0.0787 0.93901,0.19834 0.11971,0.0814 0.15841,0.18822 0.11612,0.32056 -0.0392,0.13034 -0.14952,0.25358 -0.3311,0.36972 -0.30055,0.19225 -0.89613,0.44004 -1.78674,0.74339 -0.61121,0.20825 -0.98726,0.35743 -1.12815,0.44754 -0.18784,0.12016 -0.22425,0.21932 -0.10924,0.29749 0.17135,0.11647 0.75043,0.11148 1.73726,-0.015 0,0 -0.54,0.3454 -0.54,0.3454" />
      <path
         inkscape:connector-curvature="0"
         id="path6558"
         style="font-style:normal;font-variant:normal;font-weight:normal;font-stretch:normal;font-size:medium;line-height:0;font-family:'Script MT Bold';-inkscape-font-specification:'Script MT Bold, ';letter-spacing:0px;word-spacing:0px;fill:#28260e;fill-opacity:1;stroke:none;stroke-width:0.26458332"
         d="m 115.25772,165.36377 c -0.68944,0.0477 -1.24661,0.0511 -1.67151,0.0101 -0.42178,-0.043 -0.77586,-0.1618 -1.06222,-0.35644 -0.31922,-0.21697 -0.44123,-0.47957 -0.36604,-0.7878 0.0776,-0.30664 0.33861,-0.60213 0.78316,-0.88648 0.6637,-0.42454 1.43575,-0.69075 2.31614,-0.79866 0.88352,-0.10991 1.53535,-0.0221 1.95551,0.2635 0.21829,0.14837 0.31802,0.31528 0.2992,0.50074 -0.0188,0.18546 -0.15034,0.35629 -0.39454,0.51249 -0.64804,0.41452 -1.69039,0.39996 -3.12703,-0.0437 -0.51659,0.4543 -0.57655,0.81627 -0.17987,1.08589 0.15492,0.10529 0.35758,0.17076 0.60799,0.19639 0.25355,0.0236 0.71329,0.01 1.37925,-0.0414 0,0 -0.54004,0.34544 -0.54004,0.34544 m -0.97617,-1.80967 c 0.8263,0.26424 1.54313,0.20211 2.15048,-0.18637 0.30055,-0.19224 0.36866,-0.3442 0.20436,-0.45588 -0.15492,-0.10529 -0.46089,-0.10468 -0.91792,0.002 -0.45391,0.10453 -0.93288,0.318 -1.43692,0.6404 0,0 0,0 0,0" />
      <path
         inkscape:connector-curvature="0"
         id="path6560"
         style="font-style:normal;font-variant:normal;font-weight:normal;font-stretch:normal;font-size:medium;line-height:0;font-family:'Script MT Bold';-inkscape-font-specification:'Script MT Bold, ';letter-spacing:0px;word-spacing:0px;fill:#28260e;fill-opacity:1;stroke:none;stroke-width:0.26458332"
         d="m 119.094,164.34063 c 0.2183,0.074 0.42683,0.15589 0.62558,0.24553 0.20187,0.0876 0.31924,0.14265 0.3521,0.16498 0.0235,0.016 0.0227,0.0319 -0.002,0.0479 -0.0469,0.03 -0.10487,0.0547 -0.17375,0.074 -0.18156,0.0666 -0.33809,0.14194 -0.46958,0.22605 -0.16279,0.10413 -0.31465,0.29416 -0.45557,0.57011 -0.14093,0.27595 -0.33193,0.49102 -0.57299,0.64521 -0.47899,0.30639 -1.11329,0.48449 -1.90288,0.53433 -0.78726,0.0514 -1.36514,-0.0481 -1.73366,-0.29857 -0.15961,-0.10849 -0.24879,-0.24345 -0.26752,-0.40488 -0.0188,-0.16143 0.0361,-0.28319 0.16441,-0.3653 0.0751,-0.0481 0.28214,-0.0953 0.62099,-0.14172 0.3412,-0.0448 0.53997,-0.0481 0.5963,-0.01 0.0751,0.0511 0.0136,0.17862 -0.18439,0.38271 -0.19803,0.20409 -0.22545,0.35479 -0.0823,0.45211 0.14318,0.0973 0.36463,0.13218 0.66435,0.1046 0.3052,-0.028 0.55955,-0.10707 0.76304,-0.23723 0.19723,-0.12616 0.3804,-0.34861 0.54951,-0.66736 0.16911,-0.31875 0.33898,-0.56676 0.50963,-0.74404 -0.85772,0.1894 -1.80229,0.33836 -2.83371,0.44687 0,0 -0.081,-0.055 -0.081,-0.055 0,0 0.42264,-0.27034 0.42264,-0.27034 1.39218,-0.13178 2.55588,-0.36516 3.49111,-0.70014 0,0 -4e-5,1e-5 -4e-5,1e-5" />
      <path
         inkscape:connector-curvature="0"
         id="path6523"
         style="font-style:normal;font-variant:normal;font-weight:normal;font-stretch:normal;font-size:medium;line-height:1.25;font-family:'Script MT Bold';-inkscape-font-specification:'Script MT Bold, ';letter-spacing:0px;word-spacing:0px;fill:#28260e;fill-opacity:1;stroke:none;stroke-width:0.26458332"
         d="m 94.669889,154.30645 c -0.400728,0.25632 -0.71188,0.30918 -0.933459,0.15857 -0.10766,-0.0732 -0.156258,-0.16348 -0.145795,-0.27092 0.219544,-0.0446 0.441176,-0.11208 0.664897,-0.20233 0.01709,0.11955 0.05567,0.19974 0.115763,0.24059 0.0676,0.0459 0.167131,0.0706 0.298594,0.0741 0,0 0,0 0,0 m -2.512061,1.65636 c -0.703682,0.0636 -1.128131,0.0461 -1.273347,-0.0526 -0.08012,-0.0545 -0.09345,-0.13511 -0.04,-0.24197 0.05512,-0.10793 0.165326,-0.21475 0.330624,-0.32049 0.355642,-0.22748 0.938334,-0.48128 1.748075,-0.76139 0,0 0.609705,0.23927 0.609705,0.23927 0,0 0.02253,0.0153 0.02253,0.0153 0,0 -0.971698,0.37379 -0.971698,0.37379 -0.401536,0.15444 -0.671598,0.27599 -0.810186,0.36463 -0.05507,0.0352 -0.09139,0.07 -0.108955,0.10438 -0.0146,0.0341 -0.0081,0.0605 0.01941,0.0793 0.04882,0.0332 0.121029,0.0514 0.216621,0.0547 0.09848,0.003 0.280244,-0.01 0.545293,-0.0391 0,0 -0.28807,0.18426 -0.28807,0.18426" />
      <path
         inkscape:connector-curvature="0"
         id="path6525"
         style="font-style:normal;font-variant:normal;font-weight:normal;font-stretch:normal;font-size:medium;line-height:1.25;font-family:'Script MT Bold';-inkscape-font-specification:'Script MT Bold, ';letter-spacing:0px;word-spacing:0px;fill:#28260e;fill-opacity:1;stroke:none;stroke-width:0.26458332"
         d="m 94.001815,157.21614 c -0.696589,0.0641 -1.148161,0.0259 -1.354717,-0.11452 -0.08388,-0.057 -0.112236,-0.12806 -0.08508,-0.21314 0.02715,-0.0851 0.106681,-0.16981 0.238586,-0.25418 0.178658,-0.11428 0.506732,-0.25146 0.984224,-0.41154 0.255863,-0.086 0.410508,-0.14614 0.463936,-0.18031 0.05343,-0.0342 0.0645,-0.0619 0.03321,-0.0832 -0.01752,-0.0119 -0.05238,-0.0202 -0.104556,-0.0248 -0.04967,-0.003 -0.112902,-0.003 -0.189682,-7e-5 -0.06971,0.003 -0.151508,0.009 -0.24541,0.0182 -0.08057,0.007 -0.170302,0.0164 -0.269203,0.0285 0,0 -0.267956,0.0327 -0.267956,0.0327 -0.121453,0.0166 -0.229554,0.0477 -0.324302,0.0935 -0.160704,0.078 -0.303459,0.15281 -0.428265,0.22439 -0.09226,0.054 -0.213531,0.12912 -0.363805,0.22524 0,0 -0.545231,-0.19876 -0.545231,-0.19876 0.211637,-0.15354 0.372555,-0.26555 0.482754,-0.33604 0.268821,-0.17195 0.546611,-0.31908 0.833368,-0.44139 0.288004,-0.12146 0.634232,-0.243 1.038684,-0.36462 0,0 0.575889,0.23613 0.575889,0.23613 -0.442021,0.15556 -0.7774,0.28668 -1.006136,0.39335 0.510857,-0.0559 0.884816,-0.0804 1.121875,-0.0735 0.239978,0.007 0.406911,0.042 0.5008,0.10578 0.06385,0.0434 0.08449,0.10038 0.06193,0.17097 -0.02088,0.0695 -0.07975,0.13524 -0.176586,0.19718 -0.160288,0.10253 -0.477929,0.23469 -0.952923,0.39647 -0.325985,0.11107 -0.526545,0.19063 -0.601679,0.23869 -0.100185,0.0641 -0.119606,0.11697 -0.05826,0.15867 0.09139,0.0621 0.400232,0.0594 0.92654,-0.008 0,0 -0.287996,0.18424 -0.287996,0.18424" />
      <path
         inkscape:connector-curvature="0"
         id="path6527"
         style="font-style:normal;font-variant:normal;font-weight:normal;font-stretch:normal;font-size:medium;line-height:1.25;font-family:'Script MT Bold';-inkscape-font-specification:'Script MT Bold, ';letter-spacing:0px;word-spacing:0px;fill:#28260e;fill-opacity:1;stroke:none;stroke-width:0.26458332"
         d="m 96.999443,157.31727 c 0.11643,0.0395 0.22764,0.0832 0.33362,0.13097 0.10769,0.0467 0.17029,0.076 0.18782,0.088 0.0125,0.008 0.0121,0.017 -0.001,0.0256 -0.025,0.016 -0.0559,0.0292 -0.0926,0.0394 -0.0968,0.0355 -0.18032,0.0757 -0.25044,0.12055 -0.0868,0.0555 -0.16782,0.1569 -0.24298,0.30407 -0.0752,0.14717 -0.17702,0.26187 -0.30559,0.34411 -0.25546,0.16341 -0.59375,0.2584 -1.01487,0.28497 -0.419873,0.0274 -0.72808,-0.0256 -0.924621,-0.15923 -0.08513,-0.0579 -0.132693,-0.12983 -0.1427,-0.21592 -0.01001,-0.0861 0.01923,-0.15104 0.0877,-0.19483 0.04004,-0.0256 0.150441,-0.0508 0.331188,-0.0756 0.181975,-0.0239 0.287985,-0.0256 0.31803,-0.005 0.04006,0.0272 0.0073,0.0953 -0.09834,0.20412 -0.10562,0.10885 -0.120248,0.18922 -0.04388,0.24113 0.07636,0.0519 0.194473,0.0705 0.354323,0.0558 0.16278,-0.0149 0.29843,-0.0571 0.40695,-0.12652 0.1052,-0.0673 0.20289,-0.18593 0.29308,-0.35592 0.0902,-0.17 0.18079,-0.30228 0.27179,-0.39683 -0.45744,0.10102 -0.96121,0.18046 -1.511299,0.23833 0,0 -0.04319,-0.0293 -0.04319,-0.0293 0,0 0.225402,-0.14418 0.225402,-0.14418 0.742497,-0.0703 1.363147,-0.19476 1.861927,-0.37341 0,0 3e-5,-2e-5 3e-5,-2e-5" />
      <path
         inkscape:connector-curvature="0"
         id="path6529"
         style="font-style:normal;font-variant:normal;font-weight:normal;font-stretch:normal;font-size:medium;line-height:1.25;font-family:'Script MT Bold';-inkscape-font-specification:'Script MT Bold, ';letter-spacing:0px;word-spacing:0px;fill:#28260e;fill-opacity:1;stroke:none;stroke-width:0.26458332"
         d="m 98.160123,160.04249 c -0.4541,0.0262 -0.76274,0.0345 -0.92592,0.0249 -0.16318,-0.01 -0.28421,-0.0412 -0.36308,-0.0948 -0.19779,-0.13444 -0.0581,-0.34682 0.41898,-0.63714 -0.36395,0.0676 -0.6559,0.10161 -0.87584,0.10191 -0.2187,10e-4 -0.38439,-0.0366 -0.49705,-0.11314 -0.11017,-0.0749 -0.1356,-0.18248 -0.0763,-0.32281 0.0622,-0.14055 0.19352,-0.27491 0.39389,-0.40307 0.25045,-0.1602 0.54054,-0.27803 0.87027,-0.35351 0.33098,-0.0746 0.64734,-0.10191 0.94909,-0.0819 0.30174,0.02 0.51458,0.0722 0.63851,0.15643 0.15649,0.10636 0.17002,0.24222 0.0406,0.40758 0,0 0.66609,0.0793 0.66609,0.0793 0,0 0.10515,0.0715 0.10515,0.0715 0,0 -0.89907,0.35708 -0.89907,0.35708 -0.45413,0.17816 -0.74965,0.31104 -0.88657,0.39861 -0.14359,0.0919 -0.1772,0.16373 -0.10084,0.21563 0.0488,0.0332 0.13688,0.0479 0.26417,0.0441 0.12897,-0.005 0.31762,-0.0165 0.56595,-0.035 0,0 -0.28802,0.18423 -0.28802,0.18423 m -1.5123,-0.84614 c 0.12519,0.0851 0.38479,0.0743 0.7788,-0.0324 0.39693,-0.1069 0.71562,-0.23725 0.95605,-0.39104 0.0935,-0.0598 0.15049,-0.1169 0.17096,-0.17128 0.0221,-0.0555 0.007,-0.10104 -0.0457,-0.13678 -0.12519,-0.0851 -0.38604,-0.0751 -0.78255,0.0298 -0.39526,0.10583 -0.71228,0.23511 -0.95104,0.38783 -0.0902,0.0577 -0.14736,0.11573 -0.17158,0.17417 -0.0213,0.0582 -0.006,0.10474 0.0451,0.13962 0,0 -6e-5,4e-5 -6e-5,4e-5" />
      <path
         inkscape:connector-curvature="0"
         id="path6531"
         style="font-style:normal;font-variant:normal;font-weight:normal;font-stretch:normal;font-size:medium;line-height:1.25;font-family:'Script MT Bold';-inkscape-font-specification:'Script MT Bold, ';letter-spacing:0px;word-spacing:0px;fill:#28260e;fill-opacity:1;stroke:none;stroke-width:0.26458332"
         d="m 99.403213,160.8874 c -0.37896,0.0178 -0.68301,0.0149 -0.91213,-0.009 -0.22621,-0.0238 -0.39752,-0.0752 -0.51394,-0.15436 -0.13395,-0.091 -0.17294,-0.20897 -0.11698,-0.35377 0.0572,-0.14395 0.2027,-0.29068 0.43646,-0.4402 0.35063,-0.22429 0.82836,-0.45471 1.43317,-0.69127 0.604797,-0.23657 1.195617,-0.43197 1.772447,-0.58622 0,0 0.71238,0.17359 0.71238,0.17359 0.0217,0.006 0.0363,0.0115 0.0438,0.0166 0.0363,0.0247 0.0298,0.0676 -0.0194,0.12888 -0.0463,0.061 -0.12962,0.12998 -0.24984,0.20688 -0.34061,0.21787 -0.72921,0.38881 -1.1658,0.51282 -0.43659,0.124 -0.961227,0.2168 -1.573917,0.27838 -0.18366,0.10426 -0.30805,0.17722 -0.37317,0.21887 -0.14527,0.0929 -0.24045,0.18023 -0.28555,0.26192 -0.0451,0.0817 -0.0345,0.14509 0.0319,0.19019 0.0676,0.046 0.17215,0.074 0.31363,0.0843 0.14148,0.0103 0.39315,0.003 0.75501,-0.0221 0,0 -0.288,0.18421 -0.288,0.18421 m 0.26008,-1.1152 c 0.394407,-0.0425 0.787167,-0.12363 1.178257,-0.24331 0.39109,-0.11969 0.69183,-0.24681 0.90221,-0.38138 0.0618,-0.0395 0.10415,-0.0757 0.12711,-0.10856 0.0246,-0.0339 0.0263,-0.0581 0.005,-0.0726 -0.0463,-0.0315 -0.26753,0.0208 -0.66364,0.15693 -0.39486,0.13695 -0.91118,0.35325 -1.548967,0.6489 0,0 -10e-6,1e-5 -10e-6,1e-5" />
      <path
         inkscape:connector-curvature="0"
         id="path6533"
         style="font-style:normal;font-variant:normal;font-weight:normal;font-stretch:normal;font-size:medium;line-height:1.25;font-family:'Script MT Bold';-inkscape-font-specification:'Script MT Bold, ';letter-spacing:0px;word-spacing:0px;fill:#28260e;fill-opacity:1;stroke:none;stroke-width:0.26458332"
         d="m 100.48857,161.62511 c -0.36644,0.0263 -0.657337,0.0323 -0.872697,0.0181 -0.21368,-0.0153 -0.37248,-0.0582 -0.47638,-0.12884 -0.10766,-0.0732 -0.13518,-0.17118 -0.0826,-0.29402 0.0555,-0.12307 0.18182,-0.24761 0.37884,-0.37363 0.17365,-0.11107 0.43453,-0.23665 0.782637,-0.37674 0,0 0.46081,-0.18574 0.46081,-0.18574 0,0 -0.15459,-0.0919 -0.15459,-0.0919 0,0 0.4533,-0.21068 0.4533,-0.21068 0,0 0.18838,0.11486 0.18838,0.11486 0,0 0.95793,-0.37985 0.95793,-0.37985 0,0 0.641,0.25394 0.641,0.25394 0,0 -1.06312,0.42732 -1.06312,0.42732 0,0 0.281,0.16461 0.281,0.16461 0,0 -0.44767,0.2046 -0.44767,0.2046 0,0 -0.32113,-0.17859 -0.32113,-0.17859 0,0 -0.68683,0.27333 -0.68683,0.27333 -0.23792,0.096 -0.41448,0.18089 -0.529687,0.25458 -0.0785,0.0502 -0.12837,0.1011 -0.14966,0.15271 -0.0184,0.0514 -0.004,0.0928 0.0419,0.1243 0.0638,0.0434 0.153777,0.0693 0.269807,0.0776 0.11766,0.007 0.32322,-0.003 0.61666,-0.0303 0,0 -0.28797,0.1842 -0.28797,0.1842" />
      <path
         inkscape:connector-curvature="0"
         id="path6535"
         style="font-style:normal;font-variant:normal;font-weight:normal;font-stretch:normal;font-size:medium;line-height:1.25;font-family:'Script MT Bold';-inkscape-font-specification:'Script MT Bold, ';letter-spacing:0px;word-spacing:0px;fill:#28260e;fill-opacity:1;stroke:none;stroke-width:0.26458332"
         d="m 102.49405,162.98821 c -0.36436,0.0233 -0.82887,-0.0149 -1.39353,-0.11448 -0.55722,0.20282 -0.99944,0.31309 -1.326647,0.3308 -0.32888,0.0188 -0.57219,-0.0254 -0.72992,-0.13264 -0.0801,-0.0545 -0.11203,-0.11911 -0.0957,-0.19394 0.0175,-0.074 0.0806,-0.14569 0.18912,-0.21511 0.32893,-0.2104 0.85293,-0.24745 1.571997,-0.11117 0,0 0.65302,-0.26658 0.65302,-0.26658 -0.58891,0.0645 -0.97287,0.036 -1.15189,-0.0857 -0.0964,-0.0655 -0.12203,-0.15234 -0.0769,-0.26047 0.0463,-0.10728 0.15719,-0.21698 0.33251,-0.32913 0.25212,-0.16126 0.56392,-0.3062 0.9354,-0.43481 0,0 0.81642,-0.28438 0.81642,-0.28438 0,0 0.67417,0.2897 0.67417,0.2897 0,0 -0.97858,0.31626 -0.97858,0.31626 -0.46664,0.15645 -0.79095,0.29287 -0.97295,0.40928 -0.15027,0.0961 -0.18723,0.17014 -0.11087,0.22204 0.0776,0.0528 0.24936,0.0593 0.51523,0.0198 0.26711,-0.0387 0.55636,-0.11308 0.86773,-0.22307 0,0 1.0005,-0.35753 1.0005,-0.35753 0,0 0.64037,0.26673 0.64037,0.26673 0,0 -2.44678,0.92093 -2.44678,0.92093 0.462,0.0827 0.92046,0.0991 1.37539,0.0493 0,0 -0.28802,0.18423 -0.28802,0.18423 m -2.08712,-0.31495 c -0.24582,-0.0459 -0.467427,-0.0611 -0.664837,-0.0455 -0.19784,0.0175 -0.35185,0.0616 -0.46205,0.13204 -0.11187,0.0716 -0.13213,0.13158 -0.0608,0.18008 0.13895,0.0944 0.53484,0.006 1.187657,-0.26666 0,0 0,0 0,0" />
      <path
         inkscape:connector-curvature="0"
         id="path6537"
         style="font-style:normal;font-variant:normal;font-weight:normal;font-stretch:normal;font-size:medium;line-height:1.25;font-family:'Script MT Bold';-inkscape-font-specification:'Script MT Bold, ';letter-spacing:0px;word-spacing:0px;fill:#28260e;fill-opacity:1;stroke:none;stroke-width:0.26458332"
         d="m 105.50906,163.10115 c 0.11643,0.0395 0.22764,0.0831 0.33362,0.13096 0.10768,0.0467 0.17029,0.0761 0.18781,0.088 0.0125,0.009 0.0121,0.0171 -0.001,0.0256 -0.025,0.016 -0.0559,0.0292 -0.0926,0.0394 -0.0968,0.0355 -0.18032,0.0757 -0.25044,0.12055 -0.0868,0.0555 -0.16782,0.1569 -0.24299,0.30407 -0.0751,0.14717 -0.17701,0.26187 -0.30558,0.34411 -0.25547,0.1634 -0.59376,0.2584 -1.01487,0.28497 -0.41987,0.0274 -0.72808,-0.0256 -0.92462,-0.15923 -0.0851,-0.0579 -0.1327,-0.12983 -0.1427,-0.21592 -0.01,-0.0861 0.0192,-0.15104 0.0877,-0.19483 0.04,-0.0256 0.15044,-0.0508 0.33119,-0.0756 0.18198,-0.0239 0.28799,-0.0257 0.31803,-0.005 0.0401,0.0272 0.007,0.0953 -0.0983,0.20412 -0.10562,0.10885 -0.12025,0.18922 -0.0439,0.24113 0.0764,0.0519 0.19447,0.0705 0.35432,0.0558 0.16277,-0.0149 0.29842,-0.0571 0.40695,-0.12652 0.1052,-0.0673 0.20289,-0.18593 0.29307,-0.35593 0.0902,-0.17 0.1808,-0.30227 0.2718,-0.39682 -0.45744,0.10102 -0.96121,0.18046 -1.5113,0.23833 0,0 -0.0432,-0.0294 -0.0432,-0.0294 0,0 0.2254,-0.14418 0.2254,-0.14418 0.7425,-0.0703 1.36314,-0.19476 1.86193,-0.37341 0,0 3e-5,-2e-5 3e-5,-2e-5" />
      <path
         inkscape:connector-curvature="0"
         id="path6539"
         style="font-style:normal;font-variant:normal;font-weight:normal;font-stretch:normal;font-size:medium;line-height:1.25;font-family:'Script MT Bold';-inkscape-font-specification:'Script MT Bold, ';letter-spacing:0px;word-spacing:0px;fill:#28260e;fill-opacity:1;stroke:none;stroke-width:0.26458332"
         d="m 106.65611,165.81711 c -0.4541,0.0262 -0.76274,0.0345 -0.92592,0.0249 -0.16318,-0.01 -0.28421,-0.0412 -0.36308,-0.0948 -0.19779,-0.13443 -0.0581,-0.34681 0.41898,-0.63713 -0.36395,0.0676 -0.6559,0.10161 -0.87584,0.10191 -0.2187,0.001 -0.38438,-0.0366 -0.49705,-0.11314 -0.11017,-0.0749 -0.1356,-0.18248 -0.0763,-0.32281 0.0622,-0.14055 0.19352,-0.27491 0.39389,-0.40307 0.25045,-0.1602 0.54054,-0.27803 0.87027,-0.35351 0.33098,-0.0746 0.64734,-0.10191 0.94909,-0.0819 0.30174,0.02 0.51458,0.0722 0.63851,0.15643 0.15649,0.10635 0.17002,0.24222 0.0406,0.40758 0,0 0.66609,0.0793 0.66609,0.0793 0,0 0.10515,0.0715 0.10515,0.0715 0,0 -0.89907,0.35707 -0.89907,0.35707 -0.45413,0.17817 -0.74965,0.31104 -0.88656,0.39862 -0.1436,0.0919 -0.17721,0.16372 -0.10085,0.21563 0.0488,0.0332 0.13688,0.0479 0.26417,0.0441 0.12897,-0.005 0.31762,-0.0165 0.56595,-0.035 0,0 -0.28802,0.18423 -0.28802,0.18423 m -1.5123,-0.84615 c 0.12519,0.0851 0.38479,0.0743 0.77881,-0.0324 0.39692,-0.10689 0.71561,-0.23724 0.95605,-0.39103 0.0935,-0.0598 0.15048,-0.1169 0.17095,-0.17128 0.0221,-0.0555 0.007,-0.10105 -0.0457,-0.13678 -0.12519,-0.0851 -0.38604,-0.0751 -0.78255,0.0298 -0.39526,0.10583 -0.71228,0.23511 -0.95104,0.38783 -0.0902,0.0577 -0.14736,0.11573 -0.17158,0.17416 -0.0213,0.0582 -0.006,0.10474 0.0451,0.13963 0,0 -6e-5,3e-5 -6e-5,3e-5" />
      <path
         inkscape:connector-curvature="0"
         id="path6541"
         style="font-style:normal;font-variant:normal;font-weight:normal;font-stretch:normal;font-size:medium;line-height:1.25;font-family:'Script MT Bold';-inkscape-font-specification:'Script MT Bold, ';letter-spacing:0px;word-spacing:0px;fill:#28260e;fill-opacity:1;stroke:none;stroke-width:0.26458332"
         d="m 108.66158,167.1802 c -0.37395,0.0212 -0.66673,0.026 -0.87833,0.0143 -0.20993,-0.0127 -0.35933,-0.0493 -0.44822,-0.10969 -0.0989,-0.0672 -0.12266,-0.15276 -0.0713,-0.25664 0.0526,-0.10302 0.16908,-0.2122 0.34941,-0.32754 -0.33974,0.0356 -0.61249,0.0474 -0.81824,0.0353 -0.20409,-0.0131 -0.35808,-0.055 -0.46199,-0.12565 -0.0951,-0.0647 -0.11891,-0.15022 -0.0713,-0.25664 0.0476,-0.10643 0.16157,-0.21731 0.34189,-0.33265 0.3473,-0.22215 0.92415,-0.47551 1.73055,-0.76009 0,0 0.63224,0.25459 0.63224,0.25459 -1.00509,0.37203 -1.62117,0.63067 -1.84825,0.77591 -0.16029,0.10253 -0.19537,0.18443 -0.10523,0.24569 0.0651,0.0442 0.21597,0.0543 0.45261,0.0301 0.23832,-0.0253 0.42196,-0.0635 0.55094,-0.11458 0,0 1.31292,-0.51525 1.31292,-0.51525 0,0 0.64851,0.25904 0.64851,0.25904 -0.62025,0.24149 -1.05413,0.41249 -1.30165,0.51301 -0.24752,0.10051 -0.41218,0.17694 -0.494,0.22927 -0.15695,0.10039 -0.19537,0.17782 -0.11525,0.23227 0.0651,0.0443 0.2408,0.059 0.52712,0.0444 0,0 0.35559,-0.0194 0.35559,-0.0194 0,0 -0.28803,0.18423 -0.28803,0.18423" />
      <path
         inkscape:connector-curvature="0"
         id="path6543"
         style="font-style:normal;font-variant:normal;font-weight:normal;font-stretch:normal;font-size:medium;line-height:1.25;font-family:'Script MT Bold';-inkscape-font-specification:'Script MT Bold, ';letter-spacing:0px;word-spacing:0px;fill:#28260e;fill-opacity:1;stroke:none;stroke-width:0.26458332"
         d="m 110.06617,168.13488 c -0.37062,0.0257 -0.67217,0.0245 -0.90463,-0.004 -0.23121,-0.0272 -0.41942,-0.0901 -0.56463,-0.18882 -0.16275,-0.11061 -0.22719,-0.24694 -0.19335,-0.40897 0.0368,-0.16226 0.16369,-0.31281 0.38075,-0.45165 0.35564,-0.22748 0.78076,-0.3714 1.27534,-0.43176 0.4975,-0.0606 0.85955,-0.0138 1.08614,0.14016 0.11141,0.0757 0.16043,0.16411 0.14705,0.26516 -0.0117,0.1 -0.0835,0.19216 -0.21543,0.27653 -0.0468,0.0299 -0.0887,0.0477 -0.12585,0.0533 -0.0359,0.006 -0.0837,0.005 -0.14339,-0.005 0,0 -0.35557,-0.0599 -0.35557,-0.0599 -0.043,-0.007 -0.0708,-0.015 -0.0833,-0.0235 -0.0175,-0.0119 -0.01,-0.0285 0.0238,-0.0499 0.0134,-0.009 0.0605,-0.0338 0.1415,-0.0756 0.0827,-0.043 0.13232,-0.0698 0.14902,-0.0805 0.0735,-0.047 0.12085,-0.093 0.14215,-0.13799 0.0225,-0.0442 0.0144,-0.0794 -0.0244,-0.10579 -0.0914,-0.0621 -0.26542,-0.0615 -0.5221,0.002 -0.25544,0.0643 -0.49837,0.17013 -0.72879,0.31752 -0.19869,0.12709 -0.32164,0.2528 -0.36883,0.37713 -0.0472,0.12432 -0.0113,0.2269 0.10761,0.30774 0.1014,0.0689 0.23494,0.10902 0.40063,0.1203 0.1686,0.0111 0.39001,0.004 0.66423,-0.0211 0,0 -0.28794,0.18417 -0.28794,0.18417" />
      <path
         inkscape:connector-curvature="0"
         id="path6545"
         style="font-style:normal;font-variant:normal;font-weight:normal;font-stretch:normal;font-size:medium;line-height:1.25;font-family:'Script MT Bold';-inkscape-font-specification:'Script MT Bold, ';letter-spacing:0px;word-spacing:0px;fill:#28260e;fill-opacity:1;stroke:none;stroke-width:0.26458332"
         d="m 111.47075,169.08956 c -0.3677,0.0254 -0.66486,0.0272 -0.89148,0.005 -0.22495,-0.0229 -0.41379,-0.0863 -0.56651,-0.1901 -0.17026,-0.11572 -0.23533,-0.25578 -0.19522,-0.42017 0.0414,-0.16353 0.18059,-0.32113 0.41768,-0.47279 0.35398,-0.22641 0.76574,-0.3684 1.23528,-0.42595 0.47121,-0.0586 0.81886,-0.0118 1.04294,0.14053 0.11642,0.0791 0.16961,0.16815 0.15957,0.26707 -0.01,0.0989 -0.0802,0.19002 -0.21042,0.27332 -0.34562,0.22108 -0.90154,0.21331 -1.66774,-0.0233 -0.27552,0.2423 -0.3075,0.43535 -0.0959,0.57914 0.0826,0.0562 0.19072,0.0911 0.3243,0.10473 0.13521,0.0126 0.3804,0.005 0.73559,-0.0221 0,0 -0.28805,0.18425 -0.28805,0.18425 m -0.52062,-0.96515 c 0.44069,0.14092 0.823,0.10779 1.14692,-0.0994 0.16029,-0.10253 0.19662,-0.18357 0.10899,-0.24314 -0.0826,-0.0562 -0.24581,-0.0558 -0.48956,9.9e-4 -0.24208,0.0557 -0.49753,0.1696 -0.76635,0.34155 0,0 0,0 0,0" />
      <path
         inkscape:export-ydpi="360.50186"
         inkscape:export-xdpi="360.50186"
         sodipodi:nodetypes="cccc"
         inkscape:connector-curvature="0"
         id="path3786-3-9-1-7-9-1-5-7-4"
         d="m 101.28576,175.92838 c -3.898255,-1.3333 -21.622319,-10.61308 -19.713454,-16.58809 1.031162,-5.26821 8.65721,-9.04367 9.775367,-9.42813 0,0 9.890837,24.74055 9.938087,26.01622 z"
         style="display:inline;opacity:1;vector-effect:none;fill:#f2f2f2;fill-opacity:0.16582917;stroke:none;stroke-width:0.90167952;stroke-linecap:round;stroke-linejoin:miter;stroke-miterlimit:4;stroke-dasharray:none;stroke-dashoffset:0;stroke-opacity:1;paint-order:normal" />
      <path
         inkscape:export-ydpi="360.50186"
         inkscape:export-xdpi="360.50186"
         sodipodi:nodetypes="ccccccc"
         style="fill:#1e2011;fill-opacity:1;stroke:none;stroke-width:0.26458332px;stroke-linecap:butt;stroke-linejoin:miter;stroke-opacity:1"
         d="m 106.68378,140.42335 10.67783,-6.70907 c 0,0 5.85863,-3.68527 15.40253,-1.7009 l 15.02455,10.11087 c 0,0 4.22861,3.73251 -1.15755,10.44159 l -13.30004,8.71707 z"
         id="path5756"
         inkscape:connector-curvature="0" />
      <path
         inkscape:export-ydpi="360.50186"
         inkscape:export-xdpi="360.50186"
         sodipodi:nodetypes="cccccc"
         style="display:inline;fill:#080904;fill-opacity:1;stroke:none;stroke-width:0.26458332px;stroke-linecap:butt;stroke-linejoin:miter;stroke-opacity:1"
         d="m 106.3396,147.56755 10.2951,-6.92237 c 0,0 4.9218,-4.47226 14.4657,-2.48789 5.32632,2.92177 12.38123,8.94068 17.22674,11.87441 -1.27567,2.92932 -17.84431,13.31636 -17.84431,13.31636 z"
         id="path5756-0"
         inkscape:connector-curvature="0" />
      <path
         inkscape:export-ydpi="360.50186"
         inkscape:export-xdpi="360.50186"
         style="fill:none;fill-opacity:1;fill-rule:nonzero;stroke:#000000;stroke-width:1;stroke-miterlimit:4;stroke-dasharray:none;stroke-opacity:1"
         d="m 134.36043,133.49533 c 0,0 12.21094,8.29962 12.21094,8.29962 4.6427,3.15558 3.39519,8.88468 -2.7971,12.84552 0,0 -27.96493,17.88748 -27.96493,17.88748 -6.1923,3.96083 -14.91504,4.60911 -19.557742,1.45353 0,0 -12.210942,-8.29962 -12.210942,-8.29962 -4.642692,-3.15558 -3.395179,-8.88468 2.797114,-12.84552 0,0 27.96493,-17.88748 27.96493,-17.88748 6.19229,-3.96083 14.91504,-4.60911 19.55773,-1.45353 0,0 0,0 0,0"
         id="rect4739-8"
         inkscape:connector-curvature="0" />
      <g
         id="g10687">
        <path
           transform="translate(1.041667e-6)"
           inkscape:export-ydpi="360.50186"
           inkscape:export-xdpi="360.50186"
           sodipodi:nodetypes="ccccc"
           inkscape:connector-curvature="0"
           id="path7096"
           d="m 134.73725,147.897 c 2.00956,0.60086 1.22052,2.72773 -1.78413,3.48766 0,0 -12.75669,-6.89806 -14.78831,-10.39434 -0.33074,-2.78757 3.30729,-2.17337 3.30729,-2.17337 z"
           style="display:inline;opacity:1;vector-effect:none;fill:#f9f9f9;fill-opacity:1;stroke:#000000;stroke-width:1;stroke-linecap:butt;stroke-linejoin:miter;stroke-miterlimit:4;stroke-dasharray:none;stroke-dashoffset:0;stroke-opacity:1" />
        <path
           transform="translate(1.041667e-6)"
           inkscape:export-ydpi="360.50186"
           inkscape:export-xdpi="360.50186"
           sodipodi:nodetypes="cccccccccc"
           inkscape:connector-curvature="0"
           id="path7064"
           d="m 132.75109,147.1558 c 3.91009,-0.75199 0.67093,3.42601 10.65385,-2.09484 1.5368,-2.2718 3.49597,-7.84172 3.49597,-7.84172 2.0789,-2.07886 3.2462,-4.62782 1.73429,-5.28928 -1.06305,-0.82683 -3.1693,1.18898 -4.39338,-1.03429 -3.27487,-4.3403 -5.83846,-6.10764 -9.05126,-6.29663 -2.33938,-0.0631 -1.60837,-4.2267 -3.5785,-4.33741 -0.86863,0 -2.47223,0.93545 -4.40993,4.00904 0,0 -2.94725,2.80438 -5.55314,5.20979 -1.67043,1.60362 0.454,11.62062 0.454,11.62062"
           style="display:inline;opacity:1;vector-effect:none;fill:#f9f9f9;fill-opacity:1;stroke:none;stroke-width:1;stroke-linecap:round;stroke-linejoin:round;stroke-miterlimit:4;stroke-dasharray:none;stroke-dashoffset:0;stroke-opacity:1" />
        <path
           transform="translate(1.041667e-6)"
           inkscape:export-ydpi="360.50186"
           inkscape:export-xdpi="360.50186"
           sodipodi:nodetypes="ccccssccc"
           inkscape:connector-curvature="0"
           id="path7064-4"
           d="m 134.57635,124.50455 c -1.39444,-1.81124 -0.99416,-4.13221 -2.96429,-4.24292 -0.86863,0 -2.47223,0.93545 -4.40993,4.00904 0,0 -4.66493,4.5612 -6.4356,7.3341 -0.39198,1.24337 -0.22886,3.13988 -0.0876,3.94461 0.0742,0.42238 2.6617,1.53398 3.06563,0.43651 4.09351,-11.12206 9.7013,-6.26379 11.02996,-7.50813 1.24657,-1.73725 -1.80517,-4.73056 -0.1982,-3.97321 z"
           style="display:inline;opacity:1;vector-effect:none;fill:#ee4214;fill-opacity:1;stroke:none;stroke-width:1;stroke-linecap:round;stroke-linejoin:round;stroke-miterlimit:4;stroke-dasharray:none;stroke-dashoffset:0;stroke-opacity:1" />
        <path
           transform="translate(1.041667e-6)"
           inkscape:export-ydpi="360.50186"
           inkscape:export-xdpi="360.50186"
           sodipodi:nodetypes="cccc"
           inkscape:connector-curvature="0"
           id="path7064-4-1"
           d="m 132.53474,125.92377 c -1.39444,-1.81124 -0.50974,-5.30152 -0.99318,-5.57927 -0.86863,0 -2.12954,1.26044 -4.06724,4.33403 3.20117,-0.23775 4.97469,1.20622 5.06042,1.24524 z"
           style="display:inline;opacity:1;vector-effect:none;fill:#fcc3be;fill-opacity:1;stroke:none;stroke-width:1;stroke-linecap:round;stroke-linejoin:round;stroke-miterlimit:4;stroke-dasharray:none;stroke-dashoffset:0;stroke-opacity:1" />
        <path
           transform="translate(1.041667e-6)"
           inkscape:export-ydpi="360.50186"
           inkscape:export-xdpi="360.50186"
           sodipodi:nodetypes="ccccccsc"
           inkscape:connector-curvature="0"
           id="path7064-4-9"
           d="m 142.21943,145.63198 c 3.0736,-3.07361 5.31931,-8.31825 5.31931,-8.31825 2.0789,-2.07886 3.7423,-4.79318 2.23039,-5.45464 -1.06305,-0.82683 -3.52632,0.28848 -5.22287,-0.39883 -2.22061,0.42522 -3.36478,-0.88144 -5.09702,0.4819 -1.17252,1.39234 5.20902,5.75206 -0.61715,11.73648 -0.57166,0.55969 0.33258,2.88535 1.53189,3.27277 0.59638,0.19265 0.81306,-0.34544 1.85545,-1.31943 z"
           style="display:inline;opacity:1;vector-effect:none;fill:#ee4214;fill-opacity:1;stroke:none;stroke-width:1;stroke-linecap:round;stroke-linejoin:round;stroke-miterlimit:4;stroke-dasharray:none;stroke-dashoffset:0;stroke-opacity:1" />
        <path
           transform="translate(1.041667e-6)"
           inkscape:export-ydpi="360.50186"
           inkscape:export-xdpi="360.50186"
           sodipodi:nodetypes="ccccc"
           inkscape:connector-curvature="0"
           id="path7064-4-9-6"
           d="m 147.60999,136.90051 c 2.0789,-2.07886 4.07302,-3.94274 2.56111,-4.6042 -1.06305,-0.82683 -3.00659,1.68224 -5.60084,1.65638 1.2305,0.75938 1.82196,1.17591 2.709,3.4675 z"
           style="display:inline;opacity:1;vector-effect:none;fill:#fcc3be;fill-opacity:1;stroke:none;stroke-width:1;stroke-linecap:round;stroke-linejoin:round;stroke-miterlimit:4;stroke-dasharray:none;stroke-dashoffset:0;stroke-opacity:1" />
        <path
           transform="translate(1.041667e-6)"
           inkscape:export-ydpi="360.50186"
           inkscape:export-xdpi="360.50186"
           sodipodi:nodetypes="csccc"
           id="path7487-0"
           d="m 134.83809,150.61858 c 0,0 3.0212,5.37991 -1.61635,7.2034 -0.57381,0.22562 -0.81505,1.46213 -1.68383,1.6286 -7.89026,1.51191 -25.56777,-14.02917 -25.56777,-14.02917 0,0 4.05989,-4.30268 12.44889,-4.73044"
           style="display:inline;opacity:1;vector-effect:none;fill:#f9f9f9;fill-opacity:1;stroke:none;stroke-width:1;stroke-linecap:round;stroke-linejoin:round;stroke-miterlimit:4;stroke-dasharray:none;stroke-dashoffset:0;stroke-opacity:1"
           inkscape:connector-curvature="0" />
        <path
           transform="translate(1.041667e-6)"
           inkscape:export-ydpi="360.50186"
           inkscape:export-xdpi="360.50186"
           sodipodi:nodetypes="cccccccccc"
           inkscape:connector-curvature="0"
           id="path7064-9"
           d="m 131.68201,146.48763 c 0,0 3.73866,1.83026 5.74318,1.74675 4.34313,-1.06909 10.1608,-7.55615 10.1608,-10.89702 2.0789,-2.07886 3.69505,-5.10029 2.18314,-5.76175 -1.06305,-0.82683 -4.32951,1.63545 -5.55359,-0.58782 -3.27487,-4.3403 -5.81218,-6.19976 -9.02498,-6.38875 -2.33938,-0.0631 -1.60837,-4.2267 -3.5785,-4.33741 -0.86863,0 -2.47223,0.93545 -4.40993,4.00904 -1.13393,0.75595 -7.43572,6.77313 -6.73432,9.93449 0.69192,4.91091 1.80501,5.91561 1.80501,5.91561"
           style="display:inline;opacity:1;vector-effect:none;fill:none;fill-opacity:1;stroke:#000000;stroke-width:1;stroke-linecap:round;stroke-linejoin:round;stroke-miterlimit:4;stroke-dasharray:none;stroke-dashoffset:0;stroke-opacity:1" />
        <path
           transform="translate(1.041667e-6)"
           inkscape:export-ydpi="360.50186"
           inkscape:export-xdpi="360.50186"
           sodipodi:nodetypes="cscsc"
           inkscape:connector-curvature="0"
           id="path7064-4-9-3"
           d="m 135.06225,156.64193 c 0.55481,-0.67261 0.41053,-1.23376 0.41883,-2.20068 0.0173,-2.01253 -0.073,0.4933 -3.80617,0.24734 -0.57166,0.55969 0.33258,2.88535 1.53189,3.27277 0.59638,0.19265 0.81306,-0.34544 1.85545,-1.31943 z"
           style="display:inline;opacity:1;vector-effect:none;fill:#ee4214;fill-opacity:1;stroke:none;stroke-width:1;stroke-linecap:round;stroke-linejoin:round;stroke-miterlimit:4;stroke-dasharray:none;stroke-dashoffset:0;stroke-opacity:1" />
        <path
           transform="translate(1.041667e-6)"
           inkscape:export-ydpi="360.50186"
           inkscape:export-xdpi="360.50186"
           inkscape:transform-center-y="-0.31257238"
           inkscape:transform-center-x="0.61769774"
           sodipodi:nodetypes="cc"
           inkscape:connector-curvature="0"
           id="path7174"
           d="m 141.3075,134.12726 c 0.25072,0.44518 0.31432,1.04014 0.17557,1.75989"
           style="display:inline;opacity:1;vector-effect:none;fill:#f9f9f9;fill-opacity:1;stroke:#000000;stroke-width:1;stroke-linecap:round;stroke-linejoin:miter;stroke-miterlimit:4;stroke-dasharray:none;stroke-dashoffset:0;stroke-opacity:1" />
        <path
           transform="translate(1.041667e-6)"
           inkscape:export-ydpi="360.50186"
           inkscape:export-xdpi="360.50186"
           inkscape:transform-center-y="-0.019574863"
           inkscape:transform-center-x="-0.072719436"
           sodipodi:nodetypes="cc"
           inkscape:connector-curvature="0"
           id="path7174-2"
           d="m 130.62573,128.0358 c 0.44277,-0.2371 1.67364,-0.46315 1.9278,-0.39333"
           style="display:inline;opacity:1;vector-effect:none;fill:#f9f9f9;fill-opacity:1;stroke:#000000;stroke-width:1;stroke-linecap:round;stroke-linejoin:miter;stroke-miterlimit:4;stroke-dasharray:none;stroke-dashoffset:0;stroke-opacity:1" />
        <path
           transform="translate(1.041667e-6)"
           inkscape:export-ydpi="360.50186"
           inkscape:export-xdpi="360.50186"
           sodipodi:nodetypes="cc"
           inkscape:connector-curvature="0"
           id="path7206-3"
           d="m 131.56162,120.49583 c 0,0 -0.46576,2.88445 1.14064,4.96332"
           style="display:inline;opacity:1;vector-effect:none;fill:none;fill-opacity:1;stroke:#000000;stroke-width:1;stroke-linecap:round;stroke-linejoin:round;stroke-miterlimit:4;stroke-dasharray:none;stroke-dashoffset:0;stroke-opacity:1" />
        <path
           transform="translate(1.041667e-6)"
           inkscape:export-ydpi="360.50186"
           inkscape:export-xdpi="360.50186"
           sodipodi:nodetypes="cc"
           inkscape:connector-curvature="0"
           id="path7206-3-6"
           d="m 145.01373,133.89563 c 0,0 2.9215,-0.0425 4.68966,-1.98561"
           style="display:inline;opacity:1;vector-effect:none;fill:none;fill-opacity:1;stroke:#000000;stroke-width:1;stroke-linecap:round;stroke-linejoin:round;stroke-miterlimit:4;stroke-dasharray:none;stroke-dashoffset:0;stroke-opacity:1" />
        <ellipse
           inkscape:export-ydpi="360.50186"
           inkscape:export-xdpi="360.50186"
           transform="matrix(0.96650866,0.25663403,-0.40728696,0.91330023,1.041667e-6,0)"
           cx="176.05449"
           cy="95.584335"
           rx="0.42052427"
           ry="0.63337308"
           id="path7286"
           style="display:inline;fill:#ffffff;fill-opacity:1;fill-rule:nonzero;stroke:none;stroke-width:1.42986679;stroke-linecap:round;stroke-linejoin:round;stroke-miterlimit:4;stroke-dasharray:none;stroke-opacity:1" />
        <ellipse
           inkscape:export-ydpi="360.50186"
           inkscape:export-xdpi="360.50186"
           transform="matrix(0.98662985,0.16297712,-0.58261274,0.81274989,1.041667e-6,0)"
           cx="203.12392"
           cy="122.35149"
           rx="0.15464538"
           ry="0.16621664"
           id="path7286-9"
           style="display:inline;fill:#ffffff;fill-opacity:1;fill-rule:nonzero;stroke:none;stroke-width:0.44419736;stroke-linecap:round;stroke-linejoin:round;stroke-miterlimit:4;stroke-dasharray:none;stroke-opacity:1" />
        <g
           style="display:inline"
           inkscape:export-ydpi="360.50186"
           inkscape:export-xdpi="360.50186"
           transform="matrix(1.1508205,0,0,1.1508205,-18.236855,-21.242529)"
           id="g7464">
          <path
             style="opacity:1;vector-effect:none;fill:#f9f9f9;fill-opacity:1;stroke:#000000;stroke-width:1;stroke-linecap:round;stroke-linejoin:round;stroke-miterlimit:4;stroke-dasharray:none;stroke-dashoffset:0;stroke-opacity:1"
             d="m 130.672,139.08599 c -0.44029,0.48681 -1.24103,-0.0677 -1.24103,-0.0677 0,0 -0.44543,-0.40746 -0.14151,-1.16432 z"
             id="path7164"
             inkscape:connector-curvature="0"
             sodipodi:nodetypes="cccc" />
          <path
             style="opacity:1;vector-effect:none;fill:#f9f9f9;fill-opacity:1;stroke:#000000;stroke-width:1;stroke-linecap:round;stroke-linejoin:round;stroke-miterlimit:4;stroke-dasharray:none;stroke-dashoffset:0;stroke-opacity:1"
             d="m 125.98538,137.62113 c -0.0756,2.88564 3.10087,2.07935 3.10087,2.07935 0,0 -0.37244,3.02133 2.99187,2.37684"
             id="path7166"
             inkscape:connector-curvature="0"
             sodipodi:nodetypes="ccc" />
          <path
             style="opacity:1;vector-effect:none;fill:#f9f9f9;fill-opacity:1;stroke:#000000;stroke-width:1;stroke-linecap:round;stroke-linejoin:round;stroke-miterlimit:4;stroke-dasharray:none;stroke-dashoffset:0;stroke-opacity:1"
             d="m 136.53071,138.8094 c -1.03378,-2.59741 -1.94039,-2.75224 -2.17344,-3.08542"
             id="path7147-6"
             inkscape:connector-curvature="0"
             sodipodi:nodetypes="cc" />
          <path
             style="opacity:1;vector-effect:none;fill:#f9f9f9;fill-opacity:1;stroke:#000000;stroke-width:1;stroke-linecap:round;stroke-linejoin:round;stroke-miterlimit:4;stroke-dasharray:none;stroke-dashoffset:0;stroke-opacity:1"
             d="m 127.07608,132.5174 c 1.84555,-0.005 3.99223,0.98665 3.99223,0.98665"
             id="path7147-1-2"
             inkscape:connector-curvature="0"
             sodipodi:nodetypes="cc" />
        </g>
        <path
           transform="translate(1.041667e-6)"
           inkscape:export-ydpi="360.50186"
           inkscape:export-xdpi="360.50186"
           sodipodi:nodetypes="csccc"
           id="path7487"
           d="m 134.59004,150.68945 c 0,0 3.26925,5.30904 -1.3683,7.13253 -0.57381,0.22562 -0.81505,1.46213 -1.68383,1.6286 -7.89026,1.51191 -25.56777,-14.02917 -25.56777,-14.02917 0,0 4.05989,-4.30268 12.44889,-4.73044"
           style="display:inline;opacity:1;vector-effect:none;fill:none;fill-opacity:1;stroke:#000000;stroke-width:1;stroke-linecap:round;stroke-linejoin:round;stroke-miterlimit:4;stroke-dasharray:none;stroke-dashoffset:0;stroke-opacity:1"
           inkscape:connector-curvature="0" />
        <path
           inkscape:export-ydpi="360.50186"
           inkscape:export-xdpi="360.50186"
           transform="matrix(0.94344506,0.33152892,-0.21978751,0.97554777,1.041667e-6,0)"
           sodipodi:nodetypes="ssssss"
           inkscape:connector-curvature="0"
           id="path7468"
           d="m 158.79818,84.271973 c 0,0.238358 -0.15883,0.348409 -0.38583,0.53068 -0.36728,0.294906 -0.95485,0.599186 -1.64958,0.599185 -1.12412,-10e-7 -2.0354,-0.505859 -2.0354,-1.129865 0,-0.624006 0.91128,-1.129863 2.0354,-1.129865 1.12413,-10e-7 2.03541,0.505857 2.03541,1.129865 z"
           style="display:inline;fill:#fbc2bc;fill-opacity:1;fill-rule:nonzero;stroke:none;stroke-width:0.54350948;stroke-linecap:round;stroke-linejoin:round;stroke-miterlimit:4;stroke-dasharray:none;stroke-opacity:1" />
        <path
           inkscape:export-ydpi="360.50186"
           inkscape:export-xdpi="360.50186"
           transform="matrix(0.77313602,0.63424025,-0.5402199,0.84152388,1.041667e-6,0)"
           inkscape:connector-curvature="0"
           id="path7468-2"
           d="m 192.15928,20.705084 a 2.0354052,1.1298651 0 0 1 -2.03541,1.129865 2.0354052,1.1298651 0 0 1 -2.0354,-1.129865 2.0354052,1.1298651 0 0 1 2.0354,-1.129865 2.0354052,1.1298651 0 0 1 2.03541,1.129865 z"
           style="display:inline;fill:#fbc2bc;fill-opacity:1;fill-rule:nonzero;stroke:none;stroke-width:0.54350948;stroke-linecap:round;stroke-linejoin:round;stroke-miterlimit:4;stroke-dasharray:none;stroke-opacity:1" />
        <g
           style="display:inline"
           inkscape:label="Layer 5"
           id="layer6">
          <g
             id="g10613">
            <g
               id="layer5"
               inkscape:label="Layer 4"
               style="display:inline"
               transform="translate(1.041667e-6)">
              <path
                 sodipodi:nodetypes="ccccc"
                 inkscape:connector-curvature="0"
                 id="path5691"
                 d="m 109.15375,138.69881 22.69592,15.76506 c 0,0 -4.50978,0.86496 -2.40421,8.64408 l -28.00993,-18.7872 c -1.22363,-2.07076 3.39994,-8.59127 7.71822,-5.62194 z"
                 style="display:inline;fill:#a4b0b0;fill-opacity:1;stroke:#000000;stroke-width:0.18635927px;stroke-linecap:butt;stroke-linejoin:miter;stroke-miterlimit:4;stroke-dasharray:none;stroke-opacity:1"
                 inkscape:export-xdpi="360.50186"
                 inkscape:export-ydpi="360.50186" />
              <g
                 style="display:inline"
                 transform="matrix(0.60506996,0,0,0.60506996,52.673258,62.736881)"
                 id="g5724"
                 inkscape:export-xdpi="360.50186"
                 inkscape:export-ydpi="360.50186">
                <path
                   style="fill:#323a3a;fill-opacity:1;stroke:#000000;stroke-width:0.26458332px;stroke-linecap:butt;stroke-linejoin:miter;stroke-opacity:1"
                   d="m 125.81713,158.22029 2.68409,1.82795 0.0554,-1.56068 1.33635,-0.46772 0.73499,2.00452 -1.60362,4.47676 -1.73725,1.1359 -2.27179,-2.00453 c 0,0 -0.26727,-5.67947 0.80181,-5.4122 z"
                   id="path5697"
                   inkscape:connector-curvature="0" />
                <path
                   sodipodi:nodetypes="cccccccccccccc"
                   style="fill:#323a3a;fill-opacity:1;stroke:#000000;stroke-width:0.26458332px;stroke-linecap:butt;stroke-linejoin:miter;stroke-opacity:1"
                   d="m 125.81711,158.22029 0.46774,-2.87315 2.80633,-2.93996 2.20497,-0.93545 1.10483,0.8986 1.50105,2.84318 0.0668,3.60813 -0.76545,3.24114 -5.11771,3.4184 2.54227,-5.45682 -0.73499,-2.00452 -1.33635,0.46772 -0.0554,1.56068 z"
                   id="path5714"
                   inkscape:connector-curvature="0" />
                <path
                   sodipodi:nodetypes="cscsccccc"
                   style="fill:none;fill-rule:evenodd;stroke:#000000;stroke-width:1.39999998;stroke-linecap:round;stroke-miterlimit:4;stroke-dasharray:none"
                   d="m 128.50122,160.04824 c -0.53316,0.48147 -0.37231,-0.85143 -0.13513,-1.34195 0.64208,-1.32791 1.5826,-1.10021 1.90811,-0.25918 0.1471,0.38007 0.20582,0.83562 0.19319,1.32758 -0.0375,1.46278 -0.70596,3.24746 -1.558,4.32708 -1.67208,2.11868 -3.44515,1.43302 -3.95083,-0.85425 -0.66892,-3.02566 0.79408,-7.54204 2.8716,-9.86349 2.61347,-2.92034 5.29116,-1.824 5.99332,1.8578 0.34465,1.80715 0.009,4.83745 -0.53725,7.11083"
                   id="path5359"
                   inkscape:connector-curvature="0" />
              </g>
              <path
                 sodipodi:nodetypes="cc"
                 inkscape:connector-curvature="0"
                 id="path5285-2-0-5-9"
                 d="M 132.11662,154.52961 109.77835,139.34656"
                 style="display:inline;fill:none;stroke:#000000;stroke-width:0.87300003;stroke-linecap:round;stroke-linejoin:miter;stroke-miterlimit:4;stroke-dasharray:none;stroke-opacity:1"
                 inkscape:export-xdpi="360.50186"
                 inkscape:export-ydpi="360.50186" />
              <path
                 sodipodi:nodetypes="ccscc"
                 inkscape:connector-curvature="0"
                 id="path5285-2-0-5-9-5"
                 d="m 129.31072,163.01765 -27.95938,-18.87016 c -0.31005,-0.0791 -0.26677,-1.52521 0.15946,-2.55466 0.45834,-1.10698 1.40011,-2.51342 3.25606,-3.26562 2.21805,-0.87639 3.87151,-0.11585 4.8637,0.87636"
                 style="display:inline;fill:none;stroke:#000000;stroke-width:0.87300003;stroke-linecap:round;stroke-linejoin:miter;stroke-miterlimit:4;stroke-dasharray:none;stroke-opacity:1"
                 inkscape:export-xdpi="360.50186"
                 inkscape:export-ydpi="360.50186" />
              <path
                 sodipodi:nodetypes="cc"
                 inkscape:connector-curvature="0"
                 id="path5285-2-0-5"
                 d="m 130.3025,159.52853 -1.61532,-1.02628"
                 style="display:inline;fill:none;stroke:#000000;stroke-width:1.10000002;stroke-linecap:round;stroke-linejoin:miter;stroke-miterlimit:4;stroke-dasharray:none;stroke-opacity:1"
                 inkscape:export-xdpi="360.50186"
                 inkscape:export-ydpi="360.50186" />
            </g>
            <path
               style="display:inline;fill:#f9f9f9;fill-opacity:1;stroke:#000000;stroke-width:1;stroke-linecap:round;stroke-linejoin:miter;stroke-miterlimit:4;stroke-dasharray:none;stroke-opacity:1"
               d="m 128.8818,152.12886 c -0.083,-0.14601 -0.34841,-2.43039 -2.86717,-0.23456 -1.71889,2.40644 -2.88282,2.51279 -4.31543,2.04477 -0.24582,-0.0803 -0.1119,-0.57287 -0.23982,-0.68642 -0.17563,-0.1559 -0.78212,-0.0703 -1.12259,-0.25624 -0.37432,-0.20443 -0.32781,-0.59098 -0.45182,-0.67278 -0.38418,-0.25336 -0.44879,0.28801 -0.7647,0.0842 -2.07134,-1.33635 1.67687,-3.65875 1.67687,-3.65875 0,0 2.25477,-1.61335 4.15906,-0.24359"
               id="path7024-6"
               inkscape:connector-curvature="0"
               sodipodi:nodetypes="ccssssscc"
               inkscape:export-xdpi="360.50186"
               inkscape:export-ydpi="360.50186" />
            <path
               style="display:inline;fill:#f9f9f9;fill-opacity:1;stroke:#000000;stroke-width:1;stroke-linecap:round;stroke-linejoin:miter;stroke-miterlimit:4;stroke-dasharray:none;stroke-opacity:1"
               d="m 118.81423,144.99639 c 0.0449,-0.29482 -0.0769,-2.12274 -2.5955,0.0726 -1.71889,2.40644 -3.0081,2.64642 -4.44071,2.1784 -0.24582,-0.0803 -0.1119,-0.57287 -0.23982,-0.68642 -0.17563,-0.1559 -0.78212,-0.0703 -1.12259,-0.25624 -0.37432,-0.20443 -0.32781,-0.59098 -0.45182,-0.67278 -0.38418,-0.25336 -0.44879,0.28801 -0.7647,0.0842 -2.07134,-1.33635 2.3744,-3.54468 2.3744,-3.54468 0,0 2.97855,-0.944 3.33769,-0.95235"
               id="path7024-6-8"
               inkscape:connector-curvature="0"
               sodipodi:nodetypes="ccssssscc"
               inkscape:export-xdpi="360.50186"
               inkscape:export-ydpi="360.50186" />
            <path
               style="display:inline;opacity:1;vector-effect:none;fill:#000000;fill-opacity:0.16582917;stroke:none;stroke-width:0.90167946;stroke-linecap:round;stroke-linejoin:miter;stroke-miterlimit:4;stroke-dasharray:none;stroke-dashoffset:0;stroke-opacity:1;paint-order:normal"
               d="m 124.39409,142.80872 c 0.22793,-0.38008 0.98641,0.39365 1.88614,1.14765 0.50819,0.42589 1.80886,1.21163 1.61632,1.59429 -0.40652,0.56547 -2.60845,-0.48349 -2.60845,-0.48349 0,0 -1.55783,-1.48761 -0.89401,-2.25845 z"
               id="path3786-3-9-1-7"
               inkscape:connector-curvature="0"
               sodipodi:nodetypes="csccc"
               inkscape:export-xdpi="360.50186"
               inkscape:export-ydpi="360.50186" />
            <path
               style="display:inline;opacity:1;vector-effect:none;fill:#000000;fill-opacity:0.16582917;stroke:none;stroke-width:0.90167952;stroke-linecap:round;stroke-linejoin:miter;stroke-miterlimit:4;stroke-dasharray:none;stroke-dashoffset:0;stroke-opacity:1;paint-order:normal"
               d="m 129.75124,152.53932 c 2.66677,-1.11507 4.50575,-2.02008 5.12679,-1.02391 1.74431,2.7979 -0.52975,5.48794 -0.72229,5.8706 -0.40652,0.56547 -1.53937,-2.85551 -1.53937,-2.85551 0,0 -3.52895,-1.22034 -2.86513,-1.99118 z"
               id="path3786-3-9-1-7-9"
               inkscape:connector-curvature="0"
               sodipodi:nodetypes="csccc"
               inkscape:export-xdpi="360.50186"
               inkscape:export-ydpi="360.50186" />
            <path
               style="display:inline;opacity:1;vector-effect:none;fill:#000000;fill-opacity:0.16582917;stroke:none;stroke-width:0.90167952;stroke-linecap:round;stroke-linejoin:miter;stroke-miterlimit:4;stroke-dasharray:none;stroke-dashoffset:0;stroke-opacity:1;paint-order:normal"
               d="m 118.48141,145.16773 c 2.66677,-1.11507 4.83648,1.33446 5.45752,2.33063 0.38858,0.88132 -1.14544,0.85696 -2.59239,-0.33945 0,0 -3.52895,-1.22034 -2.86513,-1.99118 z"
               id="path3786-3-9-1-7-9-1"
               inkscape:connector-curvature="0"
               sodipodi:nodetypes="cccc"
               inkscape:export-xdpi="360.50186"
               inkscape:export-ydpi="360.50186" />
            <path
               style="display:inline;opacity:1;vector-effect:none;fill:#000000;fill-opacity:0.16582917;stroke:none;stroke-width:0.36368671;stroke-linecap:round;stroke-linejoin:miter;stroke-miterlimit:4;stroke-dasharray:none;stroke-dashoffset:0;stroke-opacity:1;paint-order:normal"
               d="m 134.89361,148.17789 c 1.37435,0.8262 0.10948,2.01651 -0.40472,2.231 0.83118,-1.06035 0.23069,-2.27212 0.40472,-2.231 z"
               id="path3786-3-9-1-7-9-1-2"
               inkscape:connector-curvature="0"
               sodipodi:nodetypes="ccc"
               inkscape:export-xdpi="360.50186"
               inkscape:export-ydpi="360.50186" />
            <path
               style="display:inline;opacity:1;vector-effect:none;fill:#000000;fill-opacity:0.16582917;stroke:none;stroke-width:0.90167952;stroke-linecap:round;stroke-linejoin:miter;stroke-miterlimit:4;stroke-dasharray:none;stroke-dashoffset:0;stroke-opacity:1;paint-order:normal"
               d="m 140.29425,146.51291 c -1.59576,2.41011 -7.40069,0.71293 -8.47093,0.23061 -0.81318,-0.51621 3.78259,-0.31366 5.65054,-0.12438 2.80633,-1.43657 8.42223,-6.09395 8.29942,-5.08413 z"
               id="path3786-3-9-1-7-9-1-5"
               inkscape:connector-curvature="0"
               sodipodi:nodetypes="ccccc"
               inkscape:export-xdpi="360.50186"
               inkscape:export-ydpi="360.50186" />
            <path
               style="display:inline;opacity:1;vector-effect:none;fill:#000000;fill-opacity:0.16582917;stroke:none;stroke-width:0.90167952;stroke-linecap:round;stroke-linejoin:miter;stroke-miterlimit:4;stroke-dasharray:none;stroke-dashoffset:0;stroke-opacity:1;paint-order:normal"
               d="m 118.47212,180.11418 c -1.59576,2.41011 -20.181804,-4.0677 -15.24913,-4.32583 4.89971,1.59331 14.81037,-4.59323 24.56283,-11.03988 10.0745,-6.65953 19.08936,-11.89336 21.36909,-15.4659 2.80633,-1.43657 -1.30346,11.2436 -1.42627,12.25342 z"
               id="path3786-3-9-1-7-9-1-5-7"
               inkscape:connector-curvature="0"
               sodipodi:nodetypes="ccsccc"
               inkscape:export-xdpi="360.50186"
               inkscape:export-ydpi="360.50186" />
            <path
               style="display:inline;opacity:1;vector-effect:none;fill:#000000;fill-opacity:0.16582917;stroke:none;stroke-width:0.90167952;stroke-linecap:round;stroke-linejoin:miter;stroke-miterlimit:4;stroke-dasharray:none;stroke-dashoffset:0;stroke-opacity:1;paint-order:normal"
               d="m 122.63869,154.2425 c 1.02852,-1.91823 2.93442,-3.09121 4.08249,-3.33609 0.96096,-0.0654 0.3825,0.36647 -1.23498,1.31979 0,0 -2.34864,2.90286 -2.84751,2.0163 z"
               id="path3786-3-9-1-7-9-1-7"
               inkscape:connector-curvature="0"
               sodipodi:nodetypes="cccc"
               inkscape:export-xdpi="360.50186"
               inkscape:export-ydpi="360.50186" />
            <path
               style="display:inline;opacity:1;vector-effect:none;fill:#000000;fill-opacity:0.16582917;stroke:none;stroke-width:0.90167952;stroke-linecap:round;stroke-linejoin:miter;stroke-miterlimit:4;stroke-dasharray:none;stroke-dashoffset:0;stroke-opacity:1;paint-order:normal"
               d="m 112.71827,147.57978 c 1.02852,-1.91823 2.93442,-3.09121 4.08249,-3.33609 0.96096,-0.0654 0.3825,0.36647 -1.23498,1.31979 0,0 -2.34864,2.90286 -2.84751,2.0163 z"
               id="path3786-3-9-1-7-9-1-7-4"
               inkscape:connector-curvature="0"
               sodipodi:nodetypes="cccc"
               inkscape:export-xdpi="360.50186"
               inkscape:export-ydpi="360.50186" />
            <path
               style="display:inline;opacity:1;vector-effect:none;fill:#000000;fill-opacity:0.16582917;stroke:none;stroke-width:1.0922507;stroke-linecap:round;stroke-linejoin:miter;stroke-miterlimit:4;stroke-dasharray:none;stroke-dashoffset:0;stroke-opacity:1;paint-order:normal"
               d="m 119.41682,152.14554 c -0.01,-0.37439 0.15193,-0.48617 0.76092,-0.55194 0.51329,0.0374 0.29389,0.28643 -0.0668,0.53927 -0.29619,0.10783 -0.60608,0.31949 -0.69414,0.0127 z"
               id="path3786-3-9-1-7-9-1-7-1"
               inkscape:connector-curvature="0"
               sodipodi:nodetypes="cccc"
               inkscape:export-xdpi="360.50186"
               inkscape:export-ydpi="360.50186" />
            <path
               style="display:inline;opacity:1;vector-effect:none;fill:#000000;fill-opacity:0.16582917;stroke:none;stroke-width:1.0922507;stroke-linecap:round;stroke-linejoin:miter;stroke-miterlimit:4;stroke-dasharray:none;stroke-dashoffset:0;stroke-opacity:1;paint-order:normal"
               d="m 121.27642,153.10462 c -0.01,-0.37439 0.15193,-0.48617 0.76092,-0.55194 0.51329,0.0374 0.29389,0.28643 -0.0668,0.53927 -0.29619,0.10783 -0.60608,0.31949 -0.69414,0.0127 z"
               id="path3786-3-9-1-7-9-1-7-1-6"
               inkscape:connector-curvature="0"
               sodipodi:nodetypes="cccc"
               inkscape:export-xdpi="360.50186"
               inkscape:export-ydpi="360.50186" />
            <path
               style="display:inline;opacity:1;vector-effect:none;fill:#000000;fill-opacity:0.16582917;stroke:none;stroke-width:1.0922507;stroke-linecap:round;stroke-linejoin:miter;stroke-miterlimit:4;stroke-dasharray:none;stroke-dashoffset:0;stroke-opacity:1;paint-order:normal"
               d="m 111.43756,146.43958 c -0.01,-0.37439 0.15193,-0.48617 0.76092,-0.55194 0.51329,0.0374 0.29389,0.28643 -0.0668,0.53927 -0.29619,0.10783 -0.60608,0.31949 -0.69414,0.0127 z"
               id="path3786-3-9-1-7-9-1-7-1-6-1"
               inkscape:connector-curvature="0"
               sodipodi:nodetypes="cccc"
               inkscape:export-xdpi="360.50186"
               inkscape:export-ydpi="360.50186" />
            <path
               style="display:inline;opacity:1;vector-effect:none;fill:#000000;fill-opacity:0.16582917;stroke:none;stroke-width:1.0922507;stroke-linecap:round;stroke-linejoin:miter;stroke-miterlimit:4;stroke-dasharray:none;stroke-dashoffset:0;stroke-opacity:1;paint-order:normal"
               d="m 109.76713,145.42062 c -0.01,-0.37439 0.15193,-0.48617 0.76092,-0.55194 0.51329,0.0374 0.29389,0.28643 -0.0668,0.53927 -0.29619,0.10783 -0.60608,0.31949 -0.69414,0.0127 z"
               id="path3786-3-9-1-7-9-1-7-1-6-1-2"
               inkscape:connector-curvature="0"
               sodipodi:nodetypes="cccc"
               inkscape:export-xdpi="360.50186"
               inkscape:export-ydpi="360.50186" />
            <path
               style="display:inline;opacity:1;vector-effect:none;fill:#000000;fill-opacity:0.51666667;stroke:none;stroke-width:0.90167952;stroke-linecap:round;stroke-linejoin:miter;stroke-miterlimit:4;stroke-dasharray:none;stroke-dashoffset:0;stroke-opacity:1;paint-order:normal"
               d="m 129.19346,162.8753 c 1.16368,-1.80654 1.66786,-3.18959 1.36718,-4.47583 0.96407,0.17808 1.04976,1.26562 0.50949,3.02254 -0.26808,0.87178 -1.42159,1.07219 -1.87667,1.45329 z"
               id="path3786-3-9-1-7-9-9"
               inkscape:connector-curvature="0"
               sodipodi:nodetypes="ccsc"
               inkscape:export-xdpi="360.50186"
               inkscape:export-ydpi="360.50186" />
          </g>
        </g>
      </g>
    </g>
  </g>
</svg>
